<?xml version="1.0" encoding="UTF-8"?>
<svg id="katman_1" data-name="katman 1" xmlns="http://www.w3.org/2000/svg" xmlns:xlink="http://www.w3.org/1999/xlink" viewBox="0 0 851.7 1616.81">
  <defs>
    <style>
      .cls-1 {
        fill: #313131;
      }

      .cls-2 {
        fill: url(#Adsız_degrade_948-2);
      }

      .cls-3 {
        fill: #f2f2f2;
      }

      .cls-4 {
        fill: url(#Adsız_degrade_948);
      }

      .cls-5 {
        fill: #999;
      }
    </style>
    <linearGradient id="Adsız_degrade_948" data-name="Adsız degrade 948" x1="-97.59" y1="1080.02" x2="145.63" y2="1080.02" gradientTransform="translate(192.47 -634.51) rotate(-13.02)" gradientUnits="userSpaceOnUse">
      <stop offset="0" stop-color="#a8a8a8"/>
      <stop offset="1" stop-color="#4d4d4d"/>
    </linearGradient>
    <linearGradient id="Adsız_degrade_948-2" data-name="Adsız degrade 948" x1="47.05" y1="100.82" x2="257.6" y2="100.82" gradientTransform="translate(108.95 -76.62) rotate(42.76)" xlink:href="#Adsız_degrade_948"/>
  </defs>
  <g>
    <g>
      <g>
        <rect class="cls-5" x="181.39" y="1082.22" width="606.53" height="383.71" rx="18.43" ry="18.43" transform="translate(-760.85 720.11) rotate(-45.2)"/>
        <path class="cls-1" d="M375.36,1240.04l8.41,115.78c.78,10.67,9.15,18.99,19.82,19.69l115.83,7.62s52.03-28.48,96.14-96.8l-51.65-51.3-47.69,48.02h0c-11.52,11.6-30.04,11.96-41.28.79-11.24-11.16-11.01-29.68.51-41.28h0s47.69-48.02,47.69-48.02l-51.65-51.3c-68.02,44.57-96.14,96.8-96.14,96.8Z"/>
      </g>
      <g>
        <rect class="cls-5" x="46.56" y="891.18" width="616.77" height="390.19" rx="18.43" ry="18.43" transform="translate(-406.77 234.36) rotate(-23.71)"/>
        <g>
          <path class="cls-1" d="M369.59,986.26c-16.17,28.98-3.96,76.65,10.59,104.24,12.64,23.96,41.8,59.82,71.89,57.65,19.66-1.42,31.06-17.34,27.67-36.28l-57.63-131.24c-15.73-19.59-40.47-15.96-52.52,5.63Z"/>
          <path class="cls-1" d="M351.72,1090.65c-30.91-67.45-132.54-23.41-103.78,45.57,12.63,28.82,46.46,41.57,74.68,29.1,28.61-12.56,41.67-46.06,29.11-74.68ZM273.17,1125.36c-14.82-35.56,37.56-58.25,53.49-23.49,6.48,14.75-.26,32.02-15,38.49-14.54,6.42-31.98-.14-38.49-15Z"/>
        </g>
      </g>
      <g>
        <rect class="cls-5" x="116.27" y="549.55" width="389.22" height="615.24" rx="18.43" ry="18.43" transform="translate(-550.99 1154.78) rotate(-89.12)"/>
        <g>
          <path class="cls-1" d="M274.44,746.01l-13.67-.21c-14.99-.23-27.33,11.73-27.57,26.73l-2.58,166.84c-.23,14.99,11.73,27.33,26.73,27.57l13.67.21,3.42-221.13Z"/>
          <path class="cls-1" d="M301.76,967.62l59.22.91c14.99.23,27.33-11.73,27.57-26.73l2.58-166.84c.23-14.99-11.73-27.33-26.73-27.57l-59.22-.91-3.42,221.13ZM376.84,790.06c-.25,16.06-13.52,28.93-29.59,28.69-15.86-.21-28.95-13.41-28.69-29.58,1.32-38.4,58.25-37.25,58.27.9Z"/>
        </g>
      </g>
      <g>
        <rect class="cls-5" x="161.91" y="335.8" width="383.32" height="605.92" rx="18.43" ry="18.43" transform="translate(-373.69 702.91) rotate(-66.08)"/>
        <g>
          <path class="cls-1" d="M454.04,681.2c5.42-12.83.76-27.44-10.38-34.95l-21.91,51.88c13.15,2.75,26.88-4.09,32.3-16.92Z"/>
          <path class="cls-1" d="M410.96,562.71c-11.56.16-20.76,2.81-33.3,1.56-10.09-1-19.53-4.01-28.96-6.73-.57,2.37-1.32,4.72-2.3,7.03-9.63,22.8-36.01,33.51-58.81,23.88-7.84-3.31-14.25-8.6-18.89-15.05-6.62,6.48-11.97,14.23-15.58,22.91-11.6,27.03-4.89,59.86,18.05,81.21,13.52,12.58,31.37,18.26,45.8,30.43,9.64,8.13,14.15,16.56,22.1,24.97,15.33,16.21,42.1,13.43,52.56-5.09l15.8-37.41,10.36-24.54,10.37-24.53,15.81-37.4c5.98-20.42-10.69-41.54-32.99-41.23Z"/>
          <path class="cls-1" d="M331.49,558.28c.63-1.5,1.12-3.03,1.49-4.57,3.17-13.37-3.68-27.51-16.76-33.04h0c-14.58-6.16-31.45.69-37.6,15.27-3.96,9.37-2.53,19.69,2.86,27.5,2.99,4.34,7.21,7.91,12.41,10.11h0c14.58,6.16,31.45-.69,37.6-15.27Z"/>
        </g>
      </g>
    </g>
    <g>
      <rect class="cls-3" x="218.49" y="52.48" width="457.18" height="722.67" rx="21.92" ry="21.92" transform="translate(-162.11 416.45) rotate(-43.04)"/>
      <path class="cls-4" d="M452,332.25c-1.14-1.85-.71-4.27.88-5.76l10.04-9.39-39.22-41.94c-1.84-1.97-4.92-2.07-6.89-.23l-20.9,19.55c12.87,13.78,12.14,35.47-1.64,48.36-13.57,12.75-35.38,12.28-48.36-1.59l-20.9,19.55c-1.97,1.84-2.07,4.92-.23,6.89l39.22,41.94,9.94-9.29c1.8-1.68,4.67-1.84,6.45-.14,1.89,1.82,1.85,4.84-.04,6.61l-10.12,9.47,124.59,133.2c1.84,1.97,4.92,2.07,6.89.23l20.9-19.55c-.06-.06-.12-.12-.18-.18-30.21-33.54,18.87-78.99,49.99-46.76.06.06.11.13.17.19l20.9-19.55c1.97-1.84,2.07-4.92.23-6.89l-124.59-133.2-10.12,9.47c-2.06,1.93-5.44,1.57-7.01-.97ZM429.8,360.54l-20.06,18.76c-1.8,1.68-4.67,1.84-6.45.14-1.89-1.82-1.85-4.84.04-6.61l20.16-18.86c1.59-1.48,4.03-1.76,5.8-.49,2.43,1.74,2.57,5.13.5,7.06Z"/>
    </g>
  </g>
  <rect class="cls-2" x="25.61" y="54.75" width="253.42" height="92.15" rx="46.08" ry="46.08" transform="translate(-27.96 130.23) rotate(-42.76)"/>
</svg>