<?xml version="1.0" encoding="UTF-8"?>
<svg id="katman_1" data-name="katman 1" xmlns="http://www.w3.org/2000/svg" xmlns:xlink="http://www.w3.org/1999/xlink" viewBox="0 0 878.58 1660.38">
  <defs>
    <style>
      .cls-1 {
        fill: #313131;
      }

      .cls-2 {
        fill: url(#Adsız_degrade_948-2);
      }

      .cls-3 {
        fill: #f2f2f2;
      }

      .cls-4 {
        fill: url(#Adsız_degrade_948);
      }

      .cls-5 {
        fill: #999;
      }
    </style>
    <linearGradient id="Adsız_degrade_948" data-name="Adsız degrade 948" x1="324.68" y1="1227.79" x2="618.53" y2="1227.79" gradientUnits="userSpaceOnUse">
      <stop offset="0" stop-color="#a8a8a8"/>
      <stop offset="1" stop-color="#4d4d4d"/>
    </linearGradient>
    <linearGradient id="Adsız_degrade_948-2" data-name="Adsız degrade 948" x1="-5723.76" y1="172.72" x2="-5507.24" y2="172.72" gradientTransform="translate(4385.64 5239.03) rotate(42.76)" xlink:href="#Adsız_degrade_948"/>
  </defs>
  <g>
    <g>
      <rect class="cls-5" x="302.66" y="42.98" width="395.26" height="624.79" rx="18.95" ry="18.95" transform="translate(-107.92 437.04) rotate(-43.04)"/>
      <path class="cls-1" d="M504.54,284.86c-.99-1.6-.61-3.69.76-4.98l8.68-8.12-33.91-36.26c-1.59-1.7-4.26-1.79-5.95-.2l-18.07,16.9c11.13,11.92,10.5,30.67-1.41,41.81-11.73,11.02-30.59,10.61-41.81-1.38l-18.07,16.9c-1.7,1.59-1.79,4.26-.2,5.95l33.91,36.26,8.59-8.03c1.56-1.46,4.04-1.6,5.58-.12,1.64,1.58,1.6,4.18-.04,5.71l-8.75,8.19,107.72,115.16c1.59,1.7,4.26,1.79,5.95.2l18.07-16.9c-.05-.05-.1-.1-.15-.15-26.12-28.99,16.31-68.29,43.22-40.43.05.05.1.11.14.16l18.07-16.9c1.7-1.59,1.79-4.26.2-5.95l-107.72-115.16-8.75,8.19c-1.78,1.67-4.71,1.36-6.06-.84ZM485.35,309.32l-17.34,16.22c-1.56,1.46-4.04,1.6-5.58.12-1.64-1.58-1.6-4.18.04-5.71l17.43-16.3c1.37-1.28,3.49-1.52,5.02-.43,2.1,1.5,2.22,4.44.44,6.1Z"/>
    </g>
    <g>
      <rect class="cls-5" x="166.51" y="233.43" width="394.21" height="623.13" rx="18.95" ry="18.95" transform="translate(-282.01 656.35) rotate(-66.08)"/>
      <g>
        <path class="cls-1" d="M466.93,588.64c5.58-13.2.78-28.22-10.68-35.95l-22.54,53.35c13.53,2.83,27.64-4.2,33.22-17.4Z"/>
        <path class="cls-1" d="M422.63,466.78c-11.89.17-21.35,2.89-34.25,1.61-10.38-1.03-20.08-4.13-29.78-6.92-.58,2.43-1.36,4.85-2.37,7.23-9.9,23.45-37.04,34.46-60.48,24.56-8.06-3.41-14.65-8.85-19.43-15.48-6.81,6.67-12.31,14.63-16.02,23.57-11.93,27.8-5.03,61.56,18.56,83.51,13.9,12.94,32.26,18.78,47.1,31.29,9.92,8.36,14.55,17.03,22.72,25.67,15.76,16.67,43.29,13.81,54.05-5.23l16.24-38.47,10.66-25.24,10.66-25.23,16.26-38.47c6.15-21-10.99-42.72-33.93-42.4Z"/>
        <path class="cls-1" d="M340.9,462.22c.65-1.55,1.16-3.12,1.53-4.7,3.26-13.75-3.79-28.3-17.23-33.98h0c-14.99-6.33-32.34.71-38.67,15.7-4.07,9.64-2.61,20.25,2.94,28.28,3.08,4.46,7.41,8.13,12.76,10.39h0c14.99,6.33,32.34-.71,38.67-15.7Z"/>
      </g>
    </g>
    <g>
      <rect class="cls-5" x="119.57" y="453.25" width="400.27" height="632.71" rx="18.95" ry="18.95" transform="translate(-454.74 1077.39) rotate(-89.12)"/>
      <g>
        <path class="cls-1" d="M282.24,655.29l-14.05-.22c-15.42-.24-28.11,12.07-28.35,27.49l-2.65,171.58c-.24,15.42,12.07,28.11,27.49,28.35l14.05.22,3.51-227.42Z"/>
        <path class="cls-1" d="M310.33,883.2l60.91.94c15.42.24,28.11-12.07,28.35-27.49l2.65-171.58c.24-15.42-12.07-28.11-27.49-28.35l-60.91-.94-3.51,227.42ZM387.54,700.59c-.26,16.52-13.9,29.76-30.43,29.5-16.31-.22-29.77-13.79-29.5-30.42,1.35-39.49,59.91-38.31,59.93.92Z"/>
      </g>
    </g>
    <g>
      <rect class="cls-5" x="47.89" y="804.58" width="634.29" height="401.27" rx="18.95" ry="18.95" transform="translate(-373.33 231.57) rotate(-23.71)"/>
      <g>
        <path class="cls-1" d="M380.09,902.37c-16.62,29.8-4.07,78.83,10.89,107.2,13,24.64,42.99,61.52,73.93,59.28,20.22-1.46,31.94-17.83,28.45-37.31l-59.26-134.97c-16.18-20.15-41.62-16.42-54.01,5.79Z"/>
        <path class="cls-1" d="M361.71,1009.71c-31.79-69.36-136.3-24.07-106.73,46.87,12.99,29.64,47.78,42.75,76.8,29.93,29.43-12.92,42.86-47.37,29.94-76.8ZM280.92,1045.42c-15.24-36.57,38.63-59.91,55.01-24.16,6.66,15.17-.26,32.92-15.43,39.58-14.96,6.61-32.89-.15-39.58-15.43Z"/>
      </g>
    </g>
  </g>
  <g>
    <rect class="cls-3" x="87.39" y="1006.41" width="741.97" height="469.39" rx="22.55" ry="22.55" transform="translate(-745.22 691.73) rotate(-45.2)"/>
    <path class="cls-4" d="M324.68,1199.48l10.29,141.63c.95,13.05,11.19,23.23,24.25,24.09l141.7,9.32s63.65-34.84,117.61-118.42l-63.18-62.75-58.34,58.74h0c-14.09,14.19-36.74,14.63-50.49.97-13.75-13.66-13.47-36.31.63-50.5h0s58.34-58.74,58.34-58.74l-63.18-62.76c-83.21,54.53-117.61,118.42-117.61,118.42Z"/>
  </g>
  <rect class="cls-2" x="15.14" y="1505.45" width="260.62" height="94.77" rx="47.38" ry="47.38" transform="translate(-833.64 2766.85) rotate(-135.76)"/>
</svg>