<?xml version="1.0" encoding="UTF-8"?>
<svg id="katman_1" data-name="katman 1" xmlns="http://www.w3.org/2000/svg" xmlns:xlink="http://www.w3.org/1999/xlink" viewBox="0 0 39.18 150">
  <defs>
    <style>
      .cls-1 {
        fill: url(#Adsız_degrade_3-2);
      }

      .cls-2 {
        fill: url(#Adsız_degrade_3);
      }

      .cls-3 {
        fill: url(#Adsız_degrade_3-3);
      }
    </style>
    <linearGradient id="Adsız_degrade_3" data-name="Adsız degrade 3" x1="0" y1="19.74" x2="39.18" y2="19.74" gradientUnits="userSpaceOnUse">
      <stop offset="0" stop-color="#4d4d4d"/>
      <stop offset="1" stop-color="#1a1a1a"/>
    </linearGradient>
    <linearGradient id="Adsız_degrade_3-2" data-name="Adsız degrade 3" y1="75" y2="75" xlink:href="#Adsız_degrade_3"/>
    <linearGradient id="Adsız_degrade_3-3" data-name="Adsız degrade 3" y1="130.26" y2="130.26" xlink:href="#Adsız_degrade_3"/>
  </defs>
  <path class="cls-2" d="M19.74,39.47C45.57,39.06,45.75.49,19.73,0,8.78,0-.02,8.99,0,19.74c0,10.88,8.85,19.74,19.74,19.74Z"/>
  <path class="cls-1" d="M19.74,94.74c25.83-.41,26.02-38.98,0-39.47C8.78,55.26-.02,64.26,0,75c0,10.88,8.85,19.74,19.74,19.74Z"/>
  <path class="cls-3" d="M19.74,150c25.83-.41,26.02-38.98,0-39.47C8.78,110.52-.02,119.52,0,130.26c0,10.88,8.85,19.74,19.74,19.74Z"/>
</svg>