<?xml version="1.0" encoding="UTF-8"?>
<svg id="katman_1" data-name="katman 1" xmlns="http://www.w3.org/2000/svg" xmlns:xlink="http://www.w3.org/1999/xlink" viewBox="0 0 122.66 120.69">
  <defs>
    <style>
      .cls-1 {
        fill: url(#Adsız_degrade_116-2);
      }

      .cls-2 {
        fill: url(#Adsız_degrade_116);
      }
    </style>
    <linearGradient id="Adsız_degrade_116" data-name="Adsız degrade 116" x1="-2542.12" y1="60.34" x2="-2457.52" y2="60.34" gradientTransform="translate(-2457.52) rotate(-180) scale(1 -1)" gradientUnits="userSpaceOnUse">
      <stop offset="0" stop-color="#bc0000"/>
      <stop offset="1" stop-color="#7c0000"/>
    </linearGradient>
    <linearGradient id="Adsız_degrade_116-2" data-name="Adsız degrade 116" x1="-2580.18" y1="53.54" x2="-2522.41" y2="53.54" xlink:href="#Adsız_degrade_116"/>
  </defs>
  <path class="cls-2" d="M84.6,4.48c-.09-1.18-.26-2.27-1.14-3.15-1.26-1.24-2.59-.82-4.15-.91-.36-.02-.7-.15-1.06-.17-23.11-.83-46.71.64-69.87,0C6.24.77,2.69-.25,1.19,1.64.28,2.78.26,4.13.19,5.55c-.22,4.44.06,9.16.01,13.65-.22,22.38-.31,44.86,0,67.24.04,3.06-.25,6.52-.01,9.51.12,1.52.9,2.53,1.99,3.52,11.78,6.11,23.06,13.48,34.83,19.55,1.22.63,2.99,1.76,4.32,1.66,1.71-.12,3.19-1.35,3.87-2.87l.18-17.51c10.35-.5,20.81.16,31.18-.15.44-.01.8-.15,1.21-.17,2.12-.09,4.12.43,5.76-1.29.14-.15,1.07-1.3,1.07-1.39v-29.34s-8.2,0-8.2,0c-.02,0-.23.21-.23.23v23.36h-30.79v-58.6c-.34-2.62,0-5.3-.33-7.94-.14-1.13-.33-2.74-1.31-3.44-6.8-3.81-13.66-7.54-20.38-11.49-.63-.37-1.36-.75-1.89-1.25l54.69-.15v30.49s8.43,0,8.43,0V4.48Z"/>
  <path class="cls-1" d="M93.8,47.61c-6.45.15-12.94-.2-19.39,0-1.67.05-4.42.06-5.96.47-3.76,1.02-4.67,6.87-2.08,9.57.39.41,2.2,1.66,2.69,1.75,1.3.24,3.74-.04,5.21,0,.4.01.78.16,1.21.17,6.1.12,12.22-.11,18.31,0,.1,2.98-.13,5.99,0,8.97.03.78.08,2.16.2,2.87.23,1.36,1.44,2.04,2.76,1.76,1-.21,4.03-2.5,5.06-3.21,6.09-4.21,13.09-9.03,18.78-13.7,1.23-1.01,3.02-2.36,1.48-4.05-1.12-1.23-4.14-3.22-5.61-4.34-5.44-4.15-11.4-8.74-17.09-12.47-1.07-.7-2.34-1.79-3.7-1.46-2.27.56-1.63,3.1-1.71,4.88-.02.36-.15.7-.17,1.06-.08,2.57.08,5.17,0,7.74Z"/>
</svg>