<?xml version="1.0" encoding="UTF-8"?>
<svg id="katman_1" data-name="katman 1" xmlns="http://www.w3.org/2000/svg" xmlns:xlink="http://www.w3.org/1999/xlink" viewBox="0 0 161.23 152.2">
  <defs>
    <style>
      .cls-1 {
        fill: url(#Adsız_degrade_116-2);
      }

      .cls-2 {
        fill: url(#Adsız_degrade_116);
      }
    </style>
    <linearGradient id="Adsız_degrade_116" data-name="Adsız degrade 116" x1="0" y1="24.75" x2="161.23" y2="24.75" gradientUnits="userSpaceOnUse">
      <stop offset="0" stop-color="#bc0000"/>
      <stop offset="1" stop-color="#7c0000"/>
    </linearGradient>
    <linearGradient id="Adsız_degrade_116-2" data-name="Adsız degrade 116" x1="29.87" y1="93.09" x2="131.36" y2="93.09" xlink:href="#Adsız_degrade_116"/>
  </defs>
  <path class="cls-2" d="M136.84,0H24.74C11.08,0,0,11.08,0,24.74s11.08,24.74,24.74,24.74c1.36.1,2.8-.21,3.58-1.42,11.92-17.58,31.04-28.35,52.53-28.08,22.61-.09,41.41,9.78,53.2,27.97.6.96,1.66,1.53,2.78,1.53,32.49-.54,32.55-48.93,0-49.48Z"/>
  <path class="cls-1" d="M121.89,54.26c-.64-.92-1.32-1.81-2.03-2.66-9.87-11.86-22.68-17.63-39.18-17.63-14.34,0-26.12,4.98-36.01,15.21-1.58,1.64-3.03,3.33-4.36,5.07-7.01,9.24-10.43,20.01-10.43,32.76v47.8c0,9.6,7.78,17.38,17.38,17.38h0c9.6,0,17.38-7.78,17.38-17.38v-48.71c0-5.35,1.26-9.65,3.75-12.78,1.98-2.49,5.69-5.45,12.17-5.45s10.24,2.94,12.23,5.41c2.53,3.14,3.81,7.45,3.81,12.82v26.19c0,9.6,7.78,17.38,17.38,17.38h0c9.6,0,17.38-7.78,17.38-17.38v-21.39c0-15.36-3.18-27.67-9.47-36.65Z"/>
</svg>