<?xml version="1.0" encoding="UTF-8"?>
<svg id="katman_1" data-name="katman 1" xmlns="http://www.w3.org/2000/svg" xmlns:xlink="http://www.w3.org/1999/xlink" viewBox="0 0 1083.3 1550.82">
  <defs>
    <style>
      .cls-1 {
        fill: #313131;
      }

      .cls-2 {
        fill: url(#Adsız_degrade_948-2);
      }

      .cls-3 {
        fill: url(#Adsız_degrade_948-3);
      }

      .cls-4 {
        fill: #f2f2f2;
      }

      .cls-5 {
        fill: url(#Adsız_degrade_948);
      }

      .cls-6 {
        fill: #999;
      }
    </style>
    <linearGradient id="Adsız_degrade_948" data-name="Adsız degrade 948" x1="369.96" y1="813.14" x2="423.55" y2="813.14" gradientTransform="translate(15.76 -39.54) rotate(-.73)" gradientUnits="userSpaceOnUse">
      <stop offset="0" stop-color="#a8a8a8"/>
      <stop offset="1" stop-color="#4d4d4d"/>
    </linearGradient>
    <linearGradient id="Adsız_degrade_948-2" data-name="Adsız degrade 948" x1="456.97" y1="814.41" x2="566.29" y2="814.41" xlink:href="#Adsız_degrade_948"/>
    <linearGradient id="Adsız_degrade_948-3" data-name="Adsız degrade 948" x1="-2527.68" y1="3237.77" x2="-2311.16" y2="3237.77" gradientTransform="translate(4022 34.13) rotate(42.76)" xlink:href="#Adsız_degrade_948"/>
  </defs>
  <g>
    <g>
      <rect class="cls-6" x="419.51" y="1001.05" width="623.76" height="394.61" rx="18.95" ry="18.95" transform="translate(-634.26 872.81) rotate(-45.2)"/>
      <path class="cls-1" d="M618.99,1163.35l8.65,119.07c.8,10.97,9.41,19.53,20.39,20.25l119.12,7.84s53.51-29.29,98.87-99.55l-53.12-52.76-49.04,49.38h0c-11.85,11.93-30.89,12.3-42.45.82-11.56-11.48-11.32-30.52.53-42.45h0s49.04-49.38,49.04-49.38l-53.12-52.76c-69.95,45.84-98.87,99.55-98.87,99.55Z"/>
    </g>
    <g>
      <rect class="cls-6" x="280.86" y="804.58" width="634.29" height="401.27" rx="18.95" ry="18.95" transform="translate(-353.67 325.23) rotate(-23.71)"/>
      <g>
        <path class="cls-1" d="M613.06,902.37c-16.62,29.8-4.07,78.83,10.89,107.2,13,24.64,42.99,61.52,73.93,59.28,20.22-1.46,31.94-17.83,28.45-37.31l-59.26-134.97c-16.18-20.15-41.62-16.42-54.01,5.79Z"/>
        <path class="cls-1" d="M594.68,1009.71c-31.79-69.36-136.3-24.07-106.73,46.87,12.99,29.64,47.78,42.75,76.8,29.93,29.43-12.92,42.86-47.37,29.94-76.8ZM513.89,1045.42c-15.24-36.57,38.63-59.91,55.01-24.16,6.66,15.17-.26,32.92-15.43,39.58-14.96,6.61-32.89-.15-39.58-15.43Z"/>
      </g>
    </g>
    <g>
      <rect class="cls-6" x="535.63" y="42.98" width="395.26" height="624.79" rx="18.95" ry="18.95" transform="translate(-45.23 596.03) rotate(-43.04)"/>
      <path class="cls-1" d="M737.51,284.86c-.99-1.6-.61-3.69.76-4.98l8.68-8.12-33.91-36.26c-1.59-1.7-4.26-1.79-5.95-.2l-18.07,16.9c11.13,11.92,10.5,30.67-1.41,41.81-11.73,11.02-30.59,10.61-41.81-1.38l-18.07,16.9c-1.7,1.59-1.79,4.26-.2,5.95l33.91,36.26,8.59-8.03c1.56-1.46,4.04-1.6,5.58-.12,1.64,1.58,1.6,4.18-.04,5.71l-8.75,8.19,107.72,115.16c1.59,1.7,4.26,1.79,5.95.2l18.07-16.9c-.05-.05-.1-.1-.15-.15-26.12-28.99,16.31-68.29,43.22-40.43.05.05.1.11.14.16l18.07-16.9c1.7-1.59,1.79-4.26.2-5.95l-107.72-115.16-8.75,8.19c-1.78,1.67-4.71,1.36-6.06-.84ZM718.32,309.32l-17.34,16.22c-1.56,1.46-4.04,1.6-5.58.12-1.64-1.58-1.6-4.18.04-5.71l17.43-16.3c1.37-1.28,3.49-1.52,5.02-.43,2.1,1.5,2.22,4.44.44,6.1Z"/>
    </g>
    <g>
      <rect class="cls-6" x="399.48" y="233.43" width="394.21" height="623.13" rx="18.95" ry="18.95" transform="translate(-143.52 869.3) rotate(-66.08)"/>
      <g>
        <path class="cls-1" d="M699.9,588.64c5.58-13.2.78-28.22-10.68-35.95l-22.54,53.35c13.53,2.83,27.64-4.2,33.22-17.4Z"/>
        <path class="cls-1" d="M655.6,466.78c-11.89.17-21.35,2.89-34.25,1.61-10.38-1.03-20.08-4.13-29.78-6.92-.58,2.43-1.36,4.85-2.37,7.23-9.9,23.45-37.04,34.46-60.48,24.56-8.06-3.41-14.65-8.85-19.43-15.48-6.81,6.67-12.31,14.63-16.02,23.57-11.93,27.8-5.03,61.56,18.56,83.51,13.9,12.94,32.26,18.78,47.1,31.29,9.92,8.36,14.55,17.03,22.72,25.67,15.76,16.67,43.29,13.81,54.05-5.23l16.24-38.47,10.66-25.24,10.66-25.23,16.26-38.47c6.15-21-10.99-42.72-33.93-42.4Z"/>
        <path class="cls-1" d="M573.87,462.22c.65-1.55,1.16-3.12,1.53-4.7,3.26-13.75-3.79-28.3-17.23-33.98h0c-14.99-6.33-32.34.71-38.67,15.7-4.07,9.64-2.61,20.25,2.94,28.28,3.08,4.46,7.41,8.13,12.76,10.39h0c14.99,6.33,32.34-.71,38.67-15.7Z"/>
      </g>
    </g>
  </g>
  <g>
    <rect class="cls-4" x="256.08" y="392.14" width="476.13" height="752.62" rx="22.55" ry="22.55" transform="translate(-275.67 1260.46) rotate(-89.84)"/>
    <g>
      <path class="cls-5" d="M447.86,633.05l-16.72-.05c-18.34-.05-33.25,14.78-33.3,33.12l-.57,204.12c-.05,18.34,14.78,33.25,33.12,33.3l16.72.05.75-270.54Z"/>
      <path class="cls-2" d="M484.71,903.7l72.46.2c18.34.05,33.25-14.78,33.3-33.12l.57-204.12c.05-18.34-14.78-33.25-33.12-33.3l-72.46-.2-.75,270.54ZM573.79,685.34c-.05,19.65-16.09,35.6-35.75,35.55-19.4-.01-35.62-15.95-35.55-35.74,1.01-46.99,70.68-46.46,71.29.2Z"/>
    </g>
  </g>
  <rect class="cls-3" x="-82.92" y="721.07" width="260.62" height="94.77" rx="47.38" ry="47.38" transform="translate(-721.07 815.84) rotate(-90)"/>
</svg>