<?xml version="1.0" encoding="UTF-8"?>
<svg id="katman_1" data-name="katman 1" xmlns="http://www.w3.org/2000/svg" xmlns:xlink="http://www.w3.org/1999/xlink" viewBox="0 0 1010.34 1532.24">
  <defs>
    <style>
      .cls-1 {
        fill: #313131;
      }

      .cls-2 {
        fill: url(#Adsız_degrade_948-4);
      }

      .cls-3 {
        fill: url(#Adsız_degrade_948-2);
      }

      .cls-4 {
        fill: url(#Adsız_degrade_948-3);
      }

      .cls-5 {
        fill: #f2f2f2;
      }

      .cls-6 {
        fill: url(#Adsız_degrade_948);
      }

      .cls-7 {
        fill: #999;
      }
    </style>
    <linearGradient id="Adsız_degrade_948" data-name="Adsız degrade 948" x1="560.58" y1="555.04" x2="602.35" y2="555.04" gradientUnits="userSpaceOnUse">
      <stop offset="0" stop-color="#a8a8a8"/>
      <stop offset="1" stop-color="#4d4d4d"/>
    </linearGradient>
    <linearGradient id="Adsız_degrade_948-2" data-name="Adsız degrade 948" x1="350.03" y1="528.53" x2="588.91" y2="528.53" xlink:href="#Adsız_degrade_948"/>
    <linearGradient id="Adsız_degrade_948-3" data-name="Adsız degrade 948" x1="384.86" y1="403.51" x2="454.22" y2="403.51" xlink:href="#Adsız_degrade_948"/>
    <linearGradient id="Adsız_degrade_948-4" data-name="Adsız degrade 948" x1="-1093.12" y1="1506.63" x2="-879.19" y2="1506.63" gradientTransform="translate(1827.94 -101.64) rotate(42.76)" xlink:href="#Adsız_degrade_948"/>
  </defs>
  <g>
    <g>
      <rect class="cls-7" x="354.72" y="989.05" width="616.28" height="389.88" rx="18.73" ry="18.73" transform="translate(-644.31 819.95) rotate(-45.2)"/>
      <path class="cls-1" d="M551.82,1149.41l8.54,117.64c.79,10.84,9.29,19.29,20.14,20.01l117.7,7.74s52.87-28.94,97.69-98.36l-52.48-52.12-48.46,48.79h0c-11.71,11.79-30.52,12.15-41.94.81-11.42-11.34-11.19-30.16.52-41.94h0s48.46-48.79,48.46-48.79l-52.48-52.13c-69.11,45.29-97.69,98.36-97.69,98.36Z"/>
    </g>
    <g>
      <rect class="cls-7" x="217.73" y="794.94" width="626.69" height="396.46" rx="18.73" ry="18.73" transform="translate(-354.48 297.31) rotate(-23.71)"/>
      <g>
        <path class="cls-1" d="M545.96,891.56c-16.43,29.44-4.02,77.88,10.76,105.92,12.84,24.35,42.47,60.79,73.04,58.57,19.98-1.45,31.56-17.62,28.11-36.87l-58.55-133.35c-15.99-19.9-41.12-16.22-53.36,5.72Z"/>
        <path class="cls-1" d="M527.8,997.61c-31.41-68.53-134.67-23.79-105.45,46.31,12.83,29.29,47.21,42.24,75.88,29.57,29.07-12.77,42.34-46.81,29.58-75.88ZM447.98,1032.89c-15.06-36.13,38.17-59.19,54.35-23.87,6.58,14.99-.26,32.53-15.24,39.11-14.78,6.53-32.5-.15-39.11-15.24Z"/>
      </g>
    </g>
    <g>
      <rect class="cls-7" x="288.56" y="447.82" width="395.48" height="625.13" rx="18.73" ry="18.73" transform="translate(-281.5 1234.88) rotate(-89.12)"/>
      <g>
        <path class="cls-1" d="M449.28,647.44l-13.89-.21c-15.23-.24-27.77,11.92-28.01,27.16l-2.62,169.52c-.24,15.23,11.92,27.77,27.16,28.01l13.89.21,3.47-224.69Z"/>
        <path class="cls-1" d="M477.03,872.61l60.18.93c15.23.24,27.77-11.92,28.01-27.16l2.62-169.52c.24-15.23-11.92-27.77-27.16-28.01l-60.18-.93-3.47,224.69ZM553.32,692.19c-.25,16.32-13.74,29.4-30.06,29.15-16.11-.21-29.41-13.62-29.15-30.06,1.34-39.02,59.19-37.85,59.21.91Z"/>
      </g>
    </g>
    <g>
      <rect class="cls-7" x="469.45" y="42.47" width="390.53" height="617.31" rx="18.73" ry="18.73" transform="translate(-60.77 548.11) rotate(-43.04)"/>
      <path class="cls-1" d="M668.91,281.44c-.97-1.58-.6-3.65.75-4.92l8.57-8.02-33.51-35.82c-1.57-1.68-4.2-1.77-5.88-.2l-17.85,16.7c10.99,11.77,10.37,30.3-1.4,41.31-11.59,10.89-30.22,10.49-41.31-1.36l-17.85,16.7c-1.68,1.57-1.77,4.2-.2,5.88l33.51,35.82,8.49-7.94c1.54-1.44,3.99-1.58,5.51-.12,1.62,1.56,1.58,4.13-.04,5.64l-8.65,8.09,106.42,113.78c1.57,1.68,4.2,1.77,5.88.2l17.86-16.7c-.05-.05-.1-.1-.15-.15-25.8-28.65,16.11-67.48,42.7-39.95.05.05.09.11.14.16l17.86-16.7c1.68-1.57,1.77-4.2.2-5.88l-106.42-113.78-8.65,8.09c-1.76,1.65-4.65,1.34-5.99-.83ZM649.95,305.61l-17.13,16.03c-1.54,1.44-3.99,1.58-5.51.12-1.62-1.56-1.58-4.13.04-5.64l17.22-16.11c1.36-1.27,3.45-1.5,4.96-.42,2.08,1.48,2.19,4.38.43,6.03Z"/>
    </g>
  </g>
  <g>
    <rect class="cls-5" x="246.54" y="148.11" width="463.3" height="732.34" rx="22.28" ry="22.28" transform="translate(-185.83 742.82) rotate(-66.08)"/>
    <g>
      <path class="cls-6" d="M599.61,565.57c6.55-15.51.91-33.17-12.55-42.25l-26.49,62.7c15.9,3.32,32.49-4.94,39.04-20.45Z"/>
      <path class="cls-3" d="M547.55,422.37c-13.97.19-25.09,3.4-40.25,1.89-12.2-1.21-23.6-4.85-35-8.14-.69,2.86-1.6,5.7-2.78,8.5-11.64,27.55-43.53,40.5-71.08,28.86-9.47-4-17.22-10.4-22.84-18.19-8,7.83-14.46,17.2-18.83,27.7-14.02,32.67-5.91,72.35,21.81,98.15,16.34,15.2,37.91,22.07,55.36,36.77,11.65,9.82,17.1,20.02,26.71,30.17,18.53,19.59,50.88,16.24,63.53-6.15l19.09-45.21,12.52-29.66,12.53-29.65,19.11-45.21c7.23-24.67-12.92-50.21-39.88-49.83Z"/>
      <path class="cls-4" d="M451.5,417.01c.77-1.82,1.36-3.66,1.8-5.52,3.83-16.16-4.45-33.25-20.25-39.93h0c-17.62-7.44-38.01.84-45.45,18.45-4.78,11.33-3.06,23.79,3.45,33.24,3.62,5.24,8.71,9.56,15,12.21h0c17.62,7.44,38.01-.84,45.45-18.45Z"/>
    </g>
  </g>
  <rect class="cls-2" x="-47.76" y="288.07" width="257.49" height="93.63" rx="46.82" ry="46.82" transform="translate(-257.18 268.88) rotate(-65.36)"/>
</svg>