<?xml version="1.0" encoding="UTF-8"?>
<svg id="katman_1" data-name="katman 1" xmlns="http://www.w3.org/2000/svg" xmlns:xlink="http://www.w3.org/1999/xlink" viewBox="0 0 1035.28 1550.82">
  <defs>
    <style>
      .cls-1 {
        fill: #313131;
      }

      .cls-2 {
        fill: url(#Adsız_degrade_948-2);
      }

      .cls-3 {
        fill: url(#Adsız_degrade_948-3);
      }

      .cls-4 {
        fill: #f2f2f2;
      }

      .cls-5 {
        fill: url(#Adsız_degrade_948);
      }

      .cls-6 {
        fill: #999;
      }
    </style>
    <linearGradient id="Adsız_degrade_948" data-name="Adsız degrade 948" x1="504.88" y1="995.95" x2="649.73" y2="995.95" gradientUnits="userSpaceOnUse">
      <stop offset="0" stop-color="#a8a8a8"/>
      <stop offset="1" stop-color="#4d4d4d"/>
    </linearGradient>
    <linearGradient id="Adsız_degrade_948-2" data-name="Adsız degrade 948" x1="359.25" y1="1063.92" x2="498.26" y2="1063.92" xlink:href="#Adsız_degrade_948"/>
    <linearGradient id="Adsız_degrade_948-3" data-name="Adsız degrade 948" x1="-4298.85" y1="320.08" x2="-4082.34" y2="320.08" gradientTransform="translate(3373.71 3805.11) rotate(42.76)" xlink:href="#Adsız_degrade_948"/>
  </defs>
  <g>
    <g>
      <rect class="cls-6" x="371.72" y="1001.05" width="623.76" height="394.61" rx="18.95" ry="18.95" transform="translate(-648.38 838.9) rotate(-45.2)"/>
      <path class="cls-1" d="M571.2,1163.35l8.65,119.07c.8,10.97,9.41,19.53,20.39,20.25l119.12,7.84s53.51-29.29,98.87-99.55l-53.12-52.76-49.04,49.38h0c-11.85,11.93-30.89,12.3-42.45.82-11.56-11.48-11.32-30.52.53-42.45h0s49.04-49.38,49.04-49.38l-53.12-52.76c-69.95,45.84-98.87,99.55-98.87,99.55Z"/>
    </g>
    <g>
      <rect class="cls-6" x="487.84" y="42.98" width="395.26" height="624.79" rx="18.95" ry="18.95" transform="translate(-58.09 563.42) rotate(-43.04)"/>
      <path class="cls-1" d="M689.72,284.86c-.99-1.6-.61-3.69.76-4.98l8.68-8.12-33.91-36.26c-1.59-1.7-4.26-1.79-5.95-.2l-18.07,16.9c11.13,11.92,10.5,30.67-1.41,41.81-11.73,11.02-30.59,10.61-41.81-1.38l-18.07,16.9c-1.7,1.59-1.79,4.26-.2,5.95l33.91,36.26,8.59-8.03c1.56-1.46,4.04-1.6,5.58-.12,1.64,1.58,1.6,4.18-.04,5.71l-8.75,8.19,107.72,115.16c1.59,1.7,4.26,1.79,5.95.2l18.07-16.9c-.05-.05-.1-.1-.15-.15-26.12-28.99,16.31-68.29,43.22-40.43.05.05.1.11.14.16l18.07-16.9c1.7-1.59,1.79-4.26.2-5.95l-107.72-115.16-8.75,8.19c-1.78,1.67-4.71,1.36-6.06-.84ZM670.53,309.32l-17.34,16.22c-1.56,1.46-4.04,1.6-5.58.12-1.64-1.58-1.6-4.18.04-5.71l17.43-16.3c1.37-1.28,3.49-1.52,5.02-.43,2.1,1.5,2.22,4.44.44,6.1Z"/>
    </g>
    <g>
      <rect class="cls-6" x="351.69" y="233.43" width="394.21" height="623.13" rx="18.95" ry="18.95" transform="translate(-171.93 825.62) rotate(-66.08)"/>
      <g>
        <path class="cls-1" d="M652.11,588.64c5.58-13.2.78-28.22-10.68-35.95l-22.54,53.35c13.53,2.83,27.64-4.2,33.22-17.4Z"/>
        <path class="cls-1" d="M607.81,466.78c-11.89.17-21.35,2.89-34.25,1.61-10.38-1.03-20.08-4.13-29.78-6.92-.58,2.43-1.36,4.85-2.37,7.23-9.9,23.45-37.04,34.46-60.48,24.56-8.06-3.41-14.65-8.85-19.43-15.48-6.81,6.67-12.31,14.63-16.02,23.57-11.93,27.8-5.03,61.56,18.56,83.51,13.9,12.94,32.26,18.78,47.1,31.29,9.92,8.36,14.55,17.03,22.72,25.67,15.76,16.67,43.29,13.81,54.05-5.23l16.24-38.47,10.66-25.24,10.66-25.23,16.26-38.47c6.15-21-10.99-42.72-33.93-42.4Z"/>
        <path class="cls-1" d="M526.08,462.22c.65-1.55,1.16-3.12,1.53-4.7,3.26-13.75-3.79-28.3-17.23-33.98h0c-14.99-6.33-32.34.71-38.67,15.7-4.07,9.64-2.61,20.25,2.94,28.28,3.08,4.46,7.41,8.13,12.76,10.39h0c14.99,6.33,32.34-.71,38.67-15.7Z"/>
      </g>
    </g>
    <g>
      <rect class="cls-6" x="304.75" y="453.25" width="400.27" height="632.71" rx="18.95" ry="18.95" transform="translate(-272.42 1262.55) rotate(-89.12)"/>
      <g>
        <path class="cls-1" d="M467.42,655.29l-14.05-.22c-15.42-.24-28.11,12.07-28.35,27.49l-2.65,171.58c-.24,15.42,12.07,28.11,27.49,28.35l14.05.22,3.51-227.42Z"/>
        <path class="cls-1" d="M495.51,883.2l60.91.94c15.42.24,28.11-12.07,28.35-27.49l2.65-171.58c.24-15.42-12.07-28.11-27.49-28.35l-60.91-.94-3.51,227.42ZM572.72,700.59c-.26,16.52-13.9,29.76-30.43,29.5-16.31-.22-29.77-13.79-29.5-30.42,1.35-39.49,59.91-38.31,59.93.92Z"/>
      </g>
    </g>
  </g>
  <g>
    <rect class="cls-4" x="119.11" y="791.85" width="754.5" height="477.32" rx="22.55" ry="22.55" transform="translate(-372.42 286.5) rotate(-23.71)"/>
    <g>
      <path class="cls-5" d="M514.27,908.16c-19.78,35.45-4.85,93.77,12.95,127.52,15.46,29.31,51.13,73.18,87.94,70.52,24.06-1.74,37.99-21.21,33.85-44.38l-70.49-160.54c-19.25-23.96-49.51-19.53-64.24,6.89Z"/>
      <path class="cls-2" d="M492.41,1035.85c-37.81-82.51-162.13-28.64-126.96,55.75,15.45,35.26,56.84,50.85,91.35,35.6,35-15.37,50.98-56.35,35.61-91.35ZM396.31,1078.32c-18.13-43.5,45.95-71.26,65.44-28.73,7.92,18.04-.31,39.16-18.35,47.09-17.79,7.86-39.12-.18-47.09-18.35Z"/>
    </g>
  </g>
  <rect class="cls-3" x="-50.66" y="1147.27" width="260.62" height="94.77" rx="47.38" ry="47.38" transform="translate(-989.98 1732.65) rotate(-112.89)"/>
</svg>