<?xml version="1.0" encoding="UTF-8"?>
<svg id="katman_2" data-name="katman 2" xmlns="http://www.w3.org/2000/svg" xmlns:xlink="http://www.w3.org/1999/xlink" viewBox="0 0 31.93 122.23">
  <defs>
    <style>
      .cls-1 {
        fill: url(#Adsız_degrade_2-3);
      }

      .cls-2 {
        fill: url(#Adsız_degrade_2-2);
      }

      .cls-3 {
        fill: url(#Adsız_degrade_2);
      }
    </style>
    <linearGradient id="Adsız_degrade_2" data-name="Adsız degrade 2" x1="0" y1="16.08" x2="31.93" y2="16.08" gradientUnits="userSpaceOnUse">
      <stop offset="0" stop-color="#4d4d4d"/>
      <stop offset="1" stop-color="#1a1a1a"/>
    </linearGradient>
    <linearGradient id="Adsız_degrade_2-2" data-name="Adsız degrade 2" y1="61.12" y2="61.12" xlink:href="#Adsız_degrade_2"/>
    <linearGradient id="Adsız_degrade_2-3" data-name="Adsız degrade 2" y1="106.15" y2="106.15" xlink:href="#Adsız_degrade_2"/>
  </defs>
  <g id="katman_1" data-name="katman 1">
    <g>
      <path class="cls-3" d="M16.08,32.16C37.13,31.83,37.28.4,16.08,0,7.15,0-.02,7.33,0,16.08c0,8.87,7.21,16.08,16.08,16.08Z"/>
      <path class="cls-2" d="M16.08,77.2c21.05-.34,21.2-31.77,0-32.16C7.15,45.03-.02,52.36,0,61.12c0,8.87,7.21,16.08,16.08,16.08Z"/>
      <path class="cls-1" d="M16.08,122.23c21.05-.34,21.2-31.77,0-32.16C7.15,90.06-.02,97.4,0,106.15c0,8.87,7.21,16.08,16.08,16.08Z"/>
    </g>
  </g>
</svg>