<?xml version="1.0" encoding="UTF-8"?>
<svg id="katman_2" data-name="katman 2" xmlns="http://www.w3.org/2000/svg" xmlns:xlink="http://www.w3.org/1999/xlink" viewBox="0 0 60.11 1030.55">
  <defs>
    <style>
      .cls-1 {
        fill: url(#Adsız_degrade_116-2);
      }

      .cls-2 {
        fill: url(#Adsız_degrade_116-6);
      }

      .cls-3 {
        fill: url(#Adsız_degrade_116-3);
      }

      .cls-4 {
        fill: url(#Adsız_degrade_116);
      }

      .cls-5 {
        fill: url(#Adsız_degrade_116-4);
      }

      .cls-6 {
        fill: url(#Adsız_degrade_116-9);
      }

      .cls-7 {
        fill: url(#Adsız_degrade_116-11);
      }

      .cls-8 {
        fill: url(#Adsız_degrade_116-12);
      }

      .cls-9 {
        fill: url(#Adsız_degrade_116-8);
      }

      .cls-10 {
        fill: url(#Adsız_degrade_116-14);
      }

      .cls-11 {
        fill: url(#Adsız_degrade_116-7);
      }

      .cls-12 {
        fill: url(#Adsız_degrade_116-13);
      }

      .cls-13 {
        fill: url(#Adsız_degrade_116-5);
      }

      .cls-14 {
        fill: url(#Adsız_degrade_116-10);
      }
    </style>
    <linearGradient id="Adsız_degrade_116" data-name="Adsız degrade 116" x1="18.99" y1="29.87" x2="41.14" y2="29.87" gradientUnits="userSpaceOnUse">
      <stop offset="0" stop-color="#bc0000"/>
      <stop offset="1" stop-color="#7c0000"/>
    </linearGradient>
    <linearGradient id="Adsız_degrade_116-2" data-name="Adsız degrade 116" x1="0" y1="42.03" x2="60.11" y2="42.03" xlink:href="#Adsız_degrade_116"/>
    <linearGradient id="Adsız_degrade_116-3" data-name="Adsız degrade 116" y1="187.62" y2="187.62" xlink:href="#Adsız_degrade_116"/>
    <linearGradient id="Adsız_degrade_116-4" data-name="Adsız degrade 116" x1="0" y1="199.78" x2="60.11" y2="199.78" xlink:href="#Adsız_degrade_116"/>
    <linearGradient id="Adsız_degrade_116-5" data-name="Adsız degrade 116" y1="345.37" y2="345.37" xlink:href="#Adsız_degrade_116"/>
    <linearGradient id="Adsız_degrade_116-6" data-name="Adsız degrade 116" x1="0" y1="357.53" x2="60.11" y2="357.53" xlink:href="#Adsız_degrade_116"/>
    <linearGradient id="Adsız_degrade_116-7" data-name="Adsız degrade 116" y1="503.12" y2="503.12" xlink:href="#Adsız_degrade_116"/>
    <linearGradient id="Adsız_degrade_116-8" data-name="Adsız degrade 116" x1="0" y1="515.27" x2="60.11" y2="515.27" xlink:href="#Adsız_degrade_116"/>
    <linearGradient id="Adsız_degrade_116-9" data-name="Adsız degrade 116" y1="660.87" y2="660.87" xlink:href="#Adsız_degrade_116"/>
    <linearGradient id="Adsız_degrade_116-10" data-name="Adsız degrade 116" x1="0" y1="673.02" x2="60.11" y2="673.02" xlink:href="#Adsız_degrade_116"/>
    <linearGradient id="Adsız_degrade_116-11" data-name="Adsız degrade 116" y1="818.62" y2="818.62" xlink:href="#Adsız_degrade_116"/>
    <linearGradient id="Adsız_degrade_116-12" data-name="Adsız degrade 116" x1="0" y1="830.77" x2="60.11" y2="830.77" xlink:href="#Adsız_degrade_116"/>
    <linearGradient id="Adsız_degrade_116-13" data-name="Adsız degrade 116" y1="976.37" y2="976.37" xlink:href="#Adsız_degrade_116"/>
    <linearGradient id="Adsız_degrade_116-14" data-name="Adsız degrade 116" x1="0" y1="988.52" x2="60.11" y2="988.52" xlink:href="#Adsız_degrade_116"/>
  </defs>
  <g id="katman_1" data-name="katman 1">
    <g>
      <g>
        <path class="cls-4" d="M41.14,29.79c-.23-14.5-21.88-14.6-22.15,0,0,6.15,5.05,11.09,11.08,11.07,6.11,0,11.08-4.97,11.08-11.08Z"/>
        <path class="cls-1" d="M26.89.11c19.38-1.59,35.4,14.05,32.98,33.61-1.7,13.76-14.5,35.42-23.8,45.7-1.12,1.24-4.3,4.58-5.88,4.64-1.72.07-4.71-3.15-5.89-4.43C14.77,69.26.9,45.76.05,31.66-.89,16.12,11.23,1.39,26.89.11ZM28.57,12.92c-13.45,1.16-20.38,17.29-11.71,27.75,8.6,10.39,25.42,7.27,29.44-5.61,3.63-11.62-5.61-23.19-17.73-22.14Z"/>
      </g>
      <g>
        <path class="cls-3" d="M41.14,187.54c-.23-14.5-21.88-14.6-22.15,0,0,6.15,5.05,11.09,11.08,11.07,6.11,0,11.08-4.97,11.08-11.08Z"/>
        <path class="cls-5" d="M26.89,157.86c19.38-1.59,35.4,14.05,32.98,33.61-1.7,13.76-14.5,35.42-23.8,45.7-1.12,1.24-4.3,4.58-5.88,4.64-1.72.07-4.71-3.15-5.89-4.43C14.77,227.01.9,203.51.05,189.41c-.94-15.53,11.17-30.26,26.84-31.55ZM28.57,170.67c-13.45,1.16-20.38,17.29-11.71,27.75,8.6,10.39,25.42,7.27,29.44-5.61,3.63-11.62-5.61-23.19-17.73-22.14Z"/>
      </g>
      <g>
        <path class="cls-13" d="M41.14,345.29c-.23-14.5-21.88-14.6-22.15,0,0,6.15,5.05,11.09,11.08,11.07,6.11,0,11.08-4.97,11.08-11.08Z"/>
        <path class="cls-2" d="M26.89,315.61c19.38-1.59,35.4,14.05,32.98,33.61-1.7,13.76-14.5,35.42-23.8,45.7-1.12,1.24-4.3,4.58-5.88,4.64-1.72.07-4.71-3.15-5.89-4.43C14.77,384.76.9,361.26.05,347.15c-.94-15.53,11.17-30.26,26.84-31.55ZM28.57,328.42c-13.45,1.16-20.38,17.29-11.71,27.75,8.6,10.39,25.42,7.27,29.44-5.61,3.63-11.62-5.61-23.19-17.73-22.14Z"/>
      </g>
      <g>
        <path class="cls-11" d="M41.14,503.04c-.23-14.5-21.88-14.6-22.15,0,0,6.15,5.05,11.09,11.08,11.07,6.11,0,11.08-4.97,11.08-11.08Z"/>
        <path class="cls-9" d="M26.89,473.36c19.38-1.59,35.4,14.05,32.98,33.61-1.7,13.76-14.5,35.42-23.8,45.7-1.12,1.24-4.3,4.58-5.88,4.64-1.72.07-4.71-3.15-5.89-4.43C14.77,542.5.9,519,.05,504.9c-.94-15.53,11.17-30.26,26.84-31.55ZM28.57,486.16c-13.45,1.16-20.38,17.29-11.71,27.75,8.6,10.39,25.42,7.27,29.44-5.61,3.63-11.62-5.61-23.19-17.73-22.14Z"/>
      </g>
      <g>
        <path class="cls-6" d="M41.14,660.79c-.23-14.5-21.88-14.6-22.15,0,0,6.15,5.05,11.09,11.08,11.07,6.11,0,11.08-4.97,11.08-11.08Z"/>
        <path class="cls-14" d="M26.89,631.1c19.38-1.59,35.4,14.05,32.98,33.61-1.7,13.76-14.5,35.42-23.8,45.7-1.12,1.24-4.3,4.58-5.88,4.64-1.72.07-4.71-3.15-5.89-4.43-9.53-10.37-23.41-33.87-24.26-47.97-.94-15.53,11.17-30.26,26.84-31.55ZM28.57,643.91c-13.45,1.16-20.38,17.29-11.71,27.75,8.6,10.39,25.42,7.27,29.44-5.61,3.63-11.62-5.61-23.19-17.73-22.14Z"/>
      </g>
      <g>
        <path class="cls-7" d="M41.14,818.54c-.23-14.5-21.88-14.6-22.15,0,0,6.15,5.05,11.09,11.08,11.07,6.11,0,11.08-4.97,11.08-11.08Z"/>
        <path class="cls-8" d="M26.89,788.85c19.38-1.59,35.4,14.05,32.98,33.61-1.7,13.76-14.5,35.42-23.8,45.7-1.12,1.24-4.3,4.58-5.88,4.64-1.72.07-4.71-3.15-5.89-4.43-9.53-10.37-23.41-33.87-24.26-47.97-.94-15.53,11.17-30.26,26.84-31.55ZM28.57,801.66c-13.45,1.16-20.38,17.29-11.71,27.75,8.6,10.39,25.42,7.27,29.44-5.61,3.63-11.62-5.61-23.19-17.73-22.14Z"/>
      </g>
      <g>
        <path class="cls-12" d="M41.14,976.28c-.23-14.5-21.88-14.6-22.15,0,0,6.15,5.05,11.09,11.08,11.07,6.11,0,11.08-4.97,11.08-11.08Z"/>
        <path class="cls-10" d="M26.89,946.6c19.38-1.59,35.4,14.05,32.98,33.61-1.7,13.76-14.5,35.42-23.8,45.7-1.12,1.24-4.3,4.58-5.88,4.64-1.72.07-4.71-3.15-5.89-4.43-9.53-10.37-23.41-33.87-24.26-47.97-.94-15.53,11.17-30.26,26.84-31.55ZM28.57,959.41c-13.45,1.16-20.38,17.29-11.71,27.75,8.6,10.39,25.42,7.27,29.44-5.61,3.63-11.62-5.61-23.19-17.73-22.14Z"/>
      </g>
    </g>
  </g>
</svg>