<?xml version="1.0" encoding="UTF-8"?>
<svg id="katman_2" data-name="katman 2" xmlns="http://www.w3.org/2000/svg" xmlns:xlink="http://www.w3.org/1999/xlink" viewBox="0 0 213.87 213.87">
  <defs>
    <style>
      .cls-1 {
        fill: url(#Adsız_degrade_116-2);
      }

      .cls-2 {
        fill: url(#Adsız_degrade_116);
      }

      .cls-3 {
        fill: url(#Adsız_degrade_948);
      }
    </style>
    <linearGradient id="Adsız_degrade_948" data-name="Adsız degrade 948" x1="0" y1="106.94" x2="213.87" y2="106.94" gradientUnits="userSpaceOnUse">
      <stop offset="0" stop-color="#a8a8a8"/>
      <stop offset="1" stop-color="#4d4d4d"/>
    </linearGradient>
    <linearGradient id="Adsız_degrade_116" data-name="Adsız degrade 116" x1="91.6" y1="90.1" x2="122.29" y2="90.1" gradientUnits="userSpaceOnUse">
      <stop offset="0" stop-color="#bc0000"/>
      <stop offset="1" stop-color="#7c0000"/>
    </linearGradient>
    <linearGradient id="Adsız_degrade_116-2" data-name="Adsız degrade 116" x1="65.29" y1="106.94" x2="148.58" y2="106.94" xlink:href="#Adsız_degrade_116"/>
  </defs>
  <g id="katman_1" data-name="katman 1">
    <g>
      <rect class="cls-3" x="0" y="0" width="213.87" height="213.87" rx="79.04" ry="79.04"/>
      <g>
        <path class="cls-2" d="M122.29,89.98c-.32-20.08-30.31-20.23-30.69,0,0,8.52,6.99,15.36,15.34,15.34,8.46,0,15.34-6.88,15.34-15.34Z"/>
        <path class="cls-1" d="M102.55,48.86c26.85-2.2,49.04,19.47,45.69,46.56-2.36,19.06-20.09,49.06-32.97,63.31-1.55,1.71-5.95,6.34-8.14,6.43-2.39.09-6.52-4.36-8.15-6.14-13.21-14.37-32.43-46.92-33.61-66.46-1.3-21.52,15.48-41.93,37.19-43.7ZM104.88,66.61c-18.64,1.61-28.23,23.95-16.22,38.45,11.92,14.39,35.22,10.08,40.79-7.77,5.02-16.09-7.78-32.13-24.57-30.68Z"/>
      </g>
    </g>
  </g>
</svg>