<?xml version="1.0" encoding="UTF-8"?>
<svg id="katman_2" data-name="katman 2" xmlns="http://www.w3.org/2000/svg" xmlns:xlink="http://www.w3.org/1999/xlink" viewBox="0 0 122.23 122.23">
  <defs>
    <style>
      .cls-1 {
        fill: url(#Adsız_degrade_3-2);
      }

      .cls-2 {
        fill: url(#Adsız_degrade_3);
      }
    </style>
    <linearGradient id="Adsız_degrade_3" data-name="Adsız degrade 3" x1="0" y1="61.12" x2="106.1" y2="61.12" gradientUnits="userSpaceOnUse">
      <stop offset="0" stop-color="#4d4d4d"/>
      <stop offset="1" stop-color="#1a1a1a"/>
    </linearGradient>
    <linearGradient id="Adsız_degrade_3-2" data-name="Adsız degrade 3" x1="90.02" y1="61.12" x2="122.23" y2="61.12" xlink:href="#Adsız_degrade_3"/>
  </defs>
  <g id="katman_1" data-name="katman 1">
    <g>
      <path class="cls-2" d="M72.54,61.12c0-15.57,9.97-28.78,23.66-33.17,5.84-1.87,9.9-7.35,9.9-13.67h0c0-10.97-11.5-17.83-20.69-12.35L6.9,48.77c-9.2,5.49-9.2,19.2,0,24.69l78.51,46.84c9.2,5.49,20.69-1.37,20.69-12.34h0c0-6.32-4.06-11.8-9.9-13.67-13.69-4.39-23.66-17.59-23.66-33.17Z"/>
      <path class="cls-1" d="M106.1,45.01c-8.87.01-16.08,7.23-16.08,16.1s7.21,16.09,16.08,16.1c0,0,.02,0,.03,0h0c8.88,0,16.1-7.22,16.1-16.1s-7.22-16.1-16.1-16.1h0s-.02,0-.03,0Z"/>
    </g>
  </g>
</svg>