<?xml version="1.0" encoding="UTF-8"?>
<svg id="katman_2" data-name="katman 2" xmlns="http://www.w3.org/2000/svg" xmlns:xlink="http://www.w3.org/1999/xlink" viewBox="0 0 925.86 789.52">
  <defs>
    <style>
      .cls-1 {
        fill: #313131;
      }

      .cls-2 {
        fill: #f2f2f2;
      }

      .cls-3 {
        fill: url(#Adsız_degrade_5-2);
      }

      .cls-4 {
        fill: #999;
      }

      .cls-5 {
        fill: url(#Adsız_degrade_5);
      }

      .cls-6 {
        fill: url(#Adsız_degrade_5-3);
      }
    </style>
    <linearGradient id="Adsız_degrade_5" data-name="Adsız degrade 5" x1="-350.33" y1="1758.67" x2="-247.63" y2="1758.67" gradientTransform="translate(-621.92 1951.93) rotate(44.8) scale(1 -1)" gradientUnits="userSpaceOnUse">
      <stop offset="0" stop-color="#a8a8a8"/>
      <stop offset="1" stop-color="#4d4d4d"/>
    </linearGradient>
    <linearGradient id="Adsız_degrade_5-2" data-name="Adsız degrade 5" x1="-453.58" y1="-32.79" x2="-355.03" y2="-32.79" gradientTransform="translate(560.24 761.49) rotate(44.8)" xlink:href="#Adsız_degrade_5"/>
    <linearGradient id="Adsız_degrade_5-3" data-name="Adsız degrade 5" x1="-4694.29" y1="1535.35" x2="-4540.77" y2="1535.35" gradientTransform="translate(4317.9 -2003.28) rotate(-47.24) scale(1 -1)" xlink:href="#Adsız_degrade_5"/>
  </defs>
  <g id="katman_1" data-name="katman 1">
    <g>
      <g>
        <rect class="cls-4" x="136.46" y="508.35" width="442.22" height="279.77" rx="18.95" ry="18.95" transform="translate(-4.52 2.51) rotate(-.4)"/>
        <path class="cls-1" d="M318.45,574.52l-55.13,64.22c-5.08,5.92-5.02,14.53.14,20.37l56.01,63.45s41.55,12,99.47-.69l-.37-53.08-49.34.34h0c-11.92.08-21.68-9.24-21.76-20.79-.08-11.55,9.55-21.01,21.47-21.09h0l49.34-.34-.37-53.08c-58.09-11.88-99.47.69-99.47.69h0Z"/>
      </g>
      <g>
        <rect class="cls-4" x="639.47" y="3.63" width="280.23" height="442.96" rx="18.95" ry="18.95" transform="translate(7.28 -23.84) rotate(1.76)"/>
        <path class="cls-1" d="M816.93,191.79c.3-1.3,1.54-2.16,2.87-2.13l8.42.25,1.06-35.18c.05-1.65-1.25-3.03-2.89-3.07l-17.53-.53c-.36,11.56-10.04,20.67-21.6,20.33-11.41-.32-20.69-9.94-20.34-21.58l-17.53-.53c-1.65-.05-3.03,1.25-3.07,2.89l-1.06,35.18,8.33.25c1.51.04,2.83,1.21,2.87,2.73.04,1.61-1.28,2.9-2.87,2.85l-8.49-.25-3.34,111.75c-.05,1.65,1.25,3.03,2.89,3.07l17.53.53c0-.05,0-.1,0-.15,1.34-27.63,42.32-26.21,41.94,1.25,0,.05,0,.11,0,.15l17.53.53c1.65.05,3.03-1.25,3.07-2.89l3.34-111.75-8.49-.25c-1.73-.05-3.05-1.67-2.63-3.45h0ZM795.06,194.51l-16.83-.5c-1.51-.04-2.83-1.21-2.87-2.73-.04-1.61,1.28-2.9,2.87-2.85l16.91.51c1.33.04,2.52.98,2.74,2.29.31,1.8-1.1,3.34-2.83,3.29h0Z"/>
      </g>
      <g>
        <rect class="cls-4" x="476.36" y="31.32" width="279.48" height="441.78" rx="18.95" ry="18.95" transform="translate(-49.53 240.8) rotate(-21.28)"/>
        <g>
          <path class="cls-1" d="M646.25,325.82c9.4-3.85,14.49-13.81,12.59-23.42l-37.99,15.58c5.39,8.18,16,11.7,25.4,7.84h0Z"/>
          <path class="cls-1" d="M684.84,242.39c-6.07-5.85-12.18-9.21-18.03-16.3-4.71-5.7-8.04-12.11-11.52-18.36-1.51.93-3.11,1.76-4.8,2.45-16.7,6.85-35.85-1.17-42.69-17.86-2.35-5.74-2.95-11.77-2.04-17.49-6.76-.05-13.5,1.21-19.83,3.85-19.89,8.03-33.28,28.46-32.38,51.28.53,13.45,6.85,25.56,8.06,39.27.81,9.16-1.19,15.84-1.39,24.26-.4,16.26,14.88,28.57,29.8,24.37l27.39-11.24,17.97-7.37,17.97-7.37,27.4-11.23c13.58-7.49,15.81-26.98,4.11-38.28h0Z"/>
          <path class="cls-1" d="M646.01,199.27c1.1-.46,2.14-.99,3.12-1.6,8.51-5.29,12.23-16.13,8.31-25.7h0c-4.38-10.67-16.62-15.8-27.3-11.42-6.86,2.82-11.43,8.88-12.65,15.7-.68,3.78-.33,7.79,1.23,11.6h0c4.38,10.67,16.62,15.8,27.3,11.42h0Z"/>
        </g>
      </g>
      <g>
        <rect class="cls-4" x="339.91" y="118.98" width="283.78" height="448.57" rx="18.95" ry="18.95" transform="translate(-102.73 434.29) rotate(-44.32)"/>
        <g>
          <path class="cls-1" d="M520.05,267.09l-6.96-7.13c-7.64-7.82-20.17-7.97-27.99-.33l-87.05,84.99c-7.82,7.64-7.97,20.17-.33,27.99l6.96,7.13,115.38-112.65Z"/>
          <path class="cls-1" d="M420.32,395.77l30.17,30.9c7.64,7.82,20.17,7.97,27.99.33l87.05-84.99c7.82-7.64,7.97-20.17.33-27.99l-30.17-30.9-115.38,112.65h0ZM550.39,342.48c-8.38,8.18-21.86,8.03-30.05-.36-8.1-8.26-8.09-21.81.36-30.04,20.41-19.19,49.28,10.66,29.69,30.4Z"/>
        </g>
      </g>
      <g>
        <rect class="cls-2" x="79.77" y="301.1" width="534.92" height="338.4" rx="22.55" ry="22.55" transform="translate(192.49 -93.44) rotate(21.09)"/>
        <g>
          <path class="cls-5" d="M417.29,417.7c-27.66,7.95-49.28,44.75-57.19,70.62-6.86,22.47-10.84,62.36,9.01,79.41,12.97,11.14,29.71,8.31,39.2-5.42l44.74-115.98c2.29-21.67-15.15-34.56-35.76-28.63h0Z"/>
          <path class="cls-3" d="M342.5,471.02c22.2-60.4-67.25-95.4-91.72-35.38-9.84,25.46,3.19,53.98,28.17,63.54,25.29,9.75,53.8-2.88,63.55-28.17h0ZM272.94,444.38c12.61-30.94,58.71-12.89,47.27,18.24-5.03,13.03-19.72,19.55-32.76,14.52-12.88-4.93-19.59-19.63-14.52-32.76h0Z"/>
        </g>
      </g>
      <rect class="cls-6" x="21.95" y="252.28" width="67.19" height="184.77" rx="33.59" ry="33.59" transform="translate(132.62 4.17) rotate(21.91)"/>
    </g>
  </g>
</svg>