<?xml version="1.0" encoding="UTF-8"?>
<svg id="katman_1" data-name="katman 1" xmlns="http://www.w3.org/2000/svg" viewBox="0 0 100 100">
  <defs>
    <style>
      .cls-1 {
        fill: #efb403;
      }

      .cls-2 {
        fill: #e23f2c;
      }

      .cls-3 {
        fill: #fff;
      }

      .cls-4 {
        fill: #2ca14c;
      }

      .cls-5 {
        fill: #3b7deb;
      }
    </style>
  </defs>
  <rect class="cls-3" x="0" y="0" width="100" height="100" rx="50" ry="50"/>
  <g>
    <path class="cls-2" d="M32.76,43.85l-10.26-7.89c8.71-17.21,30.88-23.24,46.65-11.44.35.26,2.61,2.01,2.57,2.26l-8.8,8.8c-3.58-3.26-8.23-4.97-13.11-4.75-7.63.35-14.64,5.82-17.06,13.02Z"/>
    <path class="cls-4" d="M61.65,66.19l9.88,7.7c-4.49,4.16-9.78,6.58-15.93,7.4-14,1.86-26.81-4.64-33.11-17.19l10.26-7.89c2.04,6.1,7.5,11.16,13.8,12.58,4.83,1.08,10.96.21,15.09-2.6Z"/>
    <path class="cls-5" d="M61.65,66.19c2.57-1.75,4.79-4.86,5.73-7.82.09-.27.48-1.66.46-1.82,0-.05-.22-.16-.24-.16h-16.96v-12.26h29.75c1.82,10.57-.62,22.1-8.55,29.61-.11.1-.26.12-.29.14l-9.88-7.7Z"/>
    <path class="cls-1" d="M32.76,43.85c-1.26,3.75-1.26,8.6,0,12.36l-10.26,7.89c-4.57-9.1-4.61-19.03,0-28.13l10.26,7.89Z"/>
  </g>
</svg>