<?xml version="1.0" encoding="UTF-8"?>
<svg id="katman_1" data-name="katman 1" xmlns="http://www.w3.org/2000/svg" viewBox="0 0 680.25 104.11">
  <defs>
    <style>
      .cls-1 {
        fill: #606060;
      }
    </style>
  </defs>
  <path class="cls-1" d="M0,65.37C0,41.47,14.11,29.23,35.14,29.23s35.13,12.1,35.13,36.14v36.86h-21.6v-36.86c0-11.23-5.47-15.98-13.54-15.98s-13.54,4.75-13.54,15.98v36.86H0v-36.86Z"/>
  <path class="cls-1" d="M98.78,67.97V31.1h21.6v36.86c0,11.23,5.47,15.98,13.54,15.98s13.54-4.75,13.54-15.98V31.1h21.6v36.86c0,23.9-14.11,36.14-35.14,36.14s-35.14-12.1-35.14-36.14Z"/>
  <path class="cls-1" d="M197.57,62.21c0-22.9,13.25-32.98,30.53-32.98,10.08,0,18.58,3.89,23.9,11.38,5.33-7.49,13.68-11.38,23.9-11.38,17.28,0,30.53,10.08,30.53,32.98v40.03h-21.6v-40.03c0-9.5-4.61-12.82-11.09-12.82s-10.94,3.31-10.94,12.82v40.03h-21.6v-40.03c0-9.5-4.61-12.82-10.94-12.82s-11.09,3.31-11.09,12.82v40.03h-21.6v-40.03Z"/>
  <path class="cls-1" d="M334.94,65.95V0h21.6v38.88c4.46-6.34,11.66-9.65,20.16-9.65,16.13,0,34.56,11.81,34.56,36.58,0,22.9-15.84,38.3-38.45,38.3s-37.87-14.26-37.87-38.16ZM389.37,66.67c0-10.22-6.62-17.28-16.42-17.28s-16.42,7.06-16.42,17.28,6.62,17.28,16.42,17.28,16.42-7.06,16.42-17.28Z"/>
  <path class="cls-1" d="M434.01,66.67c0-21.6,15.84-37.44,38.3-37.44s37.87,15.84,37.87,37.44v6.05h-53.71c1.73,8.35,8.06,12.1,15.84,12.1,6.19,0,10.8-1.3,13.54-5.18h22.32c-4.61,14.69-18.14,24.48-35.86,24.48-22.46,0-38.3-15.84-38.3-37.44ZM488.01,59.04c-2.45-7.34-8.21-10.51-15.7-10.51s-13.25,3.31-15.41,10.51h31.1Z"/>
  <path class="cls-1" d="M535.82,61.77c0-22.18,12.96-32.54,31.97-32.54s31.82,10.22,31.97,32.69v.43h-21.6v-.58c0-9.5-4.32-12.38-10.37-12.38s-10.37,2.88-10.37,12.38v40.46h-21.6v-40.46Z"/>
  <path class="cls-1" d="M619.48,80.64h21.31c.14,3.74,2.88,5.62,8.78,5.62,6.62,0,8.78-2.3,8.78-5.33,0-4.75-5.18-5.18-11.81-6.19-9.79-1.44-25.92-3.89-25.92-21.02,0-14.4,11.38-24.48,29.09-24.48s28.66,10.22,29.09,23.04h-21.02c-.58-3.31-3.46-5.18-7.78-5.18-5.33,0-7.49,2.74-7.49,5.62,0,4.32,5.18,4.9,11.81,5.9,10.22,1.44,25.92,4.18,25.92,21.02,0,14.69-12.1,24.48-30.38,24.48s-30.09-9.79-30.38-23.47Z"/>
</svg>