<?xml version="1.0" encoding="UTF-8"?>
<svg id="katman_1" data-name="katman 1" xmlns="http://www.w3.org/2000/svg" viewBox="0 0 924.6 108.5">
  <defs>
    <style>
      .cls-1 {
        fill: #333;
      }
    </style>
  </defs>
  <path class="cls-1" d="M16.7,10.25c-.45-.9-1.2-1.9-1.95-2.5-.65-.5-1.85-1.15-3.75-1.15-3.3,0-5.6,2.05-5.6,5.15,0,1.3.35,2.05,1.25,2.9,1,1,2.25,1.55,3.5,2.1l3.2,1.4c1.95.85,3.75,1.75,5.15,3.15,1.7,1.7,2.4,3.65,2.4,6.05,0,6.15-4.55,10.25-10.55,10.25-2.2,0-4.95-.45-7.25-2.7-1.65-1.6-2.65-3.9-3.1-5.9l3.6-1c.25,1.75,1.05,3.25,2,4.25,1.45,1.45,3.1,1.85,4.8,1.85,4.55,0,6.7-3.25,6.7-6.6,0-1.5-.45-2.8-1.65-3.9-.95-.9-2.25-1.5-4-2.3l-3-1.4c-1.3-.6-2.95-1.3-4.45-2.75-1.45-1.4-2.3-2.95-2.3-5.45C1.7,6.55,5.65,3.1,11.05,3.1c2.05,0,3.7.4,5.35,1.5,1.35.9,2.5,2.25,3.25,3.7l-2.95,1.95Z"/>
  <path class="cls-1" d="M28.6,5.85c1.4,0,2.55,1.15,2.55,2.55s-1.15,2.55-2.55,2.55-2.55-1.15-2.55-2.55,1.15-2.55,2.55-2.55ZM30.4,16.25v20.75h-3.6v-20.75h3.6Z"/>
  <path class="cls-1" d="M53.1,16.25h3.6v20.25c0,2.25,0,5.45-2,8.15-1.55,2.1-4.4,3.85-8.3,3.85-3.55,0-6-1.4-7.4-2.8-1.4-1.4-2.7-3.65-2.7-6.7h3.55c0,1.75.7,3.3,1.6,4.3,1.5,1.65,3.4,2,5,2,2.55,0,4.3-.9,5.5-2.9,1.05-1.7,1.15-3.55,1.15-5.3v-3c-1.2,1.55-3.45,3.5-7.1,3.5-3.05,0-5.5-1.2-7.1-2.8-1.4-1.4-3-4-3-8.2s1.5-6.55,3-8.05c1.75-1.7,4.3-2.8,7.1-2.8,3.05,0,5.45,1.3,7.1,3.45v-2.95ZM41.7,20.9c-1.75,1.8-2.1,4-2.1,5.7,0,1.8.35,4.25,2.35,6.1,1.15,1.05,2.55,1.7,4.45,1.7s3.4-.6,4.55-1.75c1.4-1.35,2.35-3.55,2.35-6s-.9-4.6-2.2-5.85c-1.15-1.15-2.85-1.85-4.7-1.85-2.2,0-3.7.95-4.7,1.95Z"/>
  <path class="cls-1" d="M63.5,16.25h3.6v2.4c.65-.85,2.5-2.9,5.95-2.9,2.45,0,4.7,1,5.95,2.85,1.05,1.55,1.2,3.25,1.2,5.55v12.85h-3.6v-12.75c0-1.25-.1-2.7-.95-3.8-.7-.9-1.8-1.5-3.4-1.5-1.25,0-2.6.35-3.65,1.6-1.4,1.65-1.5,4.1-1.5,5.6v10.85h-3.6v-20.75Z"/>
  <path class="cls-1" d="M100.45,5.85c1.4,0,2.55,1.15,2.55,2.55s-1.15,2.55-2.55,2.55-2.55-1.15-2.55-2.55,1.15-2.55,2.55-2.55ZM102.25,16.25v20.75h-3.6v-20.75h3.6Z"/>
  <path class="cls-1" d="M109.05,16.25h3.6v2.4c.65-.85,2.5-2.9,5.95-2.9,2.45,0,4.7,1,5.95,2.85,1.05,1.55,1.2,3.25,1.2,5.55v12.85h-3.6v-12.75c0-1.25-.1-2.7-.95-3.8-.7-.9-1.8-1.5-3.4-1.5-1.25,0-2.6.35-3.65,1.6-1.4,1.65-1.5,4.1-1.5,5.6v10.85h-3.6v-20.75Z"/>
  <path class="cls-1" d="M147.9,19.55v17.45h-3.6v-17.45h-2.2v-3.3h2.2v-7.5h3.6v7.5h3.6v3.3h-3.6Z"/>
  <path class="cls-1" d="M153.59,26.7c0-6.3,4.65-10.95,11-10.95s11,4.65,11,10.95-4.7,10.9-11,10.9-11-4.6-11-10.9ZM157.29,26.7c0,5.1,3.6,7.7,7.3,7.7s7.3-2.65,7.3-7.7-3.5-7.75-7.3-7.75-7.3,2.7-7.3,7.75Z"/>
  <path class="cls-1" d="M201.29,21.05c-.5-1.2-1.55-2.1-2.9-2.1s-2.5.75-2.5,2.35c0,1.5,1,1.95,3.35,2.95,3,1.25,4.4,2.2,5.2,3.2.9,1.1,1.1,2.2,1.1,3.35,0,4.35-3.15,6.8-7.15,6.8-.85,0-5.5-.1-7.25-5.3l3.1-1.3c.4,1.1,1.6,3.4,4.2,3.4,2.35,0,3.4-1.75,3.4-3.3,0-1.95-1.4-2.6-3.35-3.45-2.5-1.1-4.1-1.9-5.05-3.05-.8-1-.95-2-.95-3.05,0-3.65,2.55-5.8,6.05-5.8,1.1,0,4.05.2,5.7,3.75l-2.95,1.55Z"/>
  <path class="cls-1" d="M228.74,31.7c-.6,1.15-1.5,2.4-2.55,3.35-1.9,1.7-4.25,2.55-6.9,2.55-5,0-10.25-3.15-10.25-10.85,0-6.2,3.8-11,10.05-11,4.05,0,6.6,2,7.85,3.8,1.3,1.85,2.05,5.05,1.95,7.8h-16.15c.05,4.3,3,7.05,6.6,7.05,1.7,0,3.05-.5,4.25-1.5.95-.8,1.7-1.85,2.15-2.85l3,1.65ZM225.19,24.35c-.6-3.25-3.05-5.4-6.1-5.4s-5.55,2.3-6.1,5.4h12.2Z"/>
  <path class="cls-1" d="M252.79,31.7c-.6,1.15-1.5,2.4-2.55,3.35-1.9,1.7-4.25,2.55-6.9,2.55-5,0-10.25-3.15-10.25-10.85,0-6.2,3.8-11,10.05-11,4.05,0,6.6,2,7.85,3.8,1.3,1.85,2.05,5.05,1.95,7.8h-16.15c.05,4.3,3,7.05,6.6,7.05,1.7,0,3.05-.5,4.25-1.5.95-.8,1.7-1.85,2.15-2.85l3,1.65ZM249.24,24.35c-.6-3.25-3.05-5.4-6.1-5.4s-5.55,2.3-6.1,5.4h12.2Z"/>
  <path class="cls-1" d="M288.49,31.7c-.6,1.15-1.5,2.4-2.55,3.35-1.9,1.7-4.25,2.55-6.9,2.55-5,0-10.25-3.15-10.25-10.85,0-6.2,3.8-11,10.05-11,4.05,0,6.6,2,7.85,3.8,1.3,1.85,2.05,5.05,1.95,7.8h-16.15c.05,4.3,3,7.05,6.6,7.05,1.7,0,3.05-.5,4.25-1.5.95-.8,1.7-1.85,2.15-2.85l3,1.65ZM284.94,24.35c-.6-3.25-3.05-5.4-6.1-5.4s-5.55,2.3-6.1,5.4h12.2Z"/>
  <path class="cls-1" d="M299.99,25.9l-7.55-9.65h4.4l5.35,7.05,5.45-7.05h4.4l-7.6,9.7,8.6,11.05h-4.4l-6.55-8.45-6.55,8.45h-4.4l8.85-11.1Z"/>
  <path class="cls-1" d="M320.44,48.5h-3.6V16.25h3.6v2.9c2.45-3.05,5.6-3.4,7.1-3.4,6.5,0,10.1,5.4,10.1,11s-3.65,10.85-9.95,10.85c-3.35,0-5.7-1.5-7.25-3.5v14.4ZM333.94,26.75c0-5.1-3.45-7.8-6.8-7.8s-6.9,2.75-6.9,7.75c0,4.25,2.7,7.7,6.95,7.7s6.75-3.5,6.75-7.65Z"/>
  <path class="cls-1" d="M361.54,31.7c-.6,1.15-1.5,2.4-2.55,3.35-1.9,1.7-4.25,2.55-6.9,2.55-5,0-10.25-3.15-10.25-10.85,0-6.2,3.8-11,10.05-11,4.05,0,6.6,2,7.85,3.8,1.3,1.85,2.05,5.05,1.95,7.8h-16.15c.05,4.3,3,7.05,6.6,7.05,1.7,0,3.05-.5,4.25-1.5.95-.8,1.7-1.85,2.15-2.85l3,1.65ZM357.99,24.35c-.6-3.25-3.05-5.4-6.1-5.4s-5.55,2.3-6.1,5.4h12.2Z"/>
  <path class="cls-1" d="M367.19,16.25h3.6v2.25c.35-.55,1.9-2.75,4.7-2.75,1.1,0,2.3.4,3.2.85l-1.7,3.25c-.8-.55-1.55-.7-2.1-.7-1.45,0-2.35.6-2.9,1.3-.6.8-1.2,2.2-1.2,5.6v10.95h-3.6v-20.75Z"/>
  <path class="cls-1" d="M383.79,5.85c1.4,0,2.55,1.15,2.55,2.55s-1.15,2.55-2.55,2.55-2.55-1.15-2.55-2.55,1.15-2.55,2.55-2.55ZM385.59,16.25v20.75h-3.6v-20.75h3.6Z"/>
  <path class="cls-1" d="M410.79,31.7c-.6,1.15-1.5,2.4-2.55,3.35-1.9,1.7-4.25,2.55-6.9,2.55-5,0-10.25-3.15-10.25-10.85,0-6.2,3.8-11,10.05-11,4.05,0,6.6,2,7.85,3.8,1.3,1.85,2.05,5.05,1.95,7.8h-16.15c.05,4.3,3,7.05,6.6,7.05,1.7,0,3.05-.5,4.25-1.5.95-.8,1.7-1.85,2.15-2.85l3,1.65ZM407.24,24.35c-.6-3.25-3.05-5.4-6.1-5.4s-5.55,2.3-6.1,5.4h12.2Z"/>
  <path class="cls-1" d="M416.44,16.25h3.6v2.4c.65-.85,2.5-2.9,5.95-2.9,2.45,0,4.7,1,5.95,2.85,1.05,1.55,1.2,3.25,1.2,5.55v12.85h-3.6v-12.75c0-1.25-.1-2.7-.95-3.8-.7-.9-1.8-1.5-3.4-1.5-1.25,0-2.6.35-3.65,1.6-1.4,1.65-1.5,4.1-1.5,5.6v10.85h-3.6v-20.75Z"/>
  <path class="cls-1" d="M456.19,22.05c-1.9-2.4-4.65-3.1-6.5-3.1-3.85,0-7.35,2.7-7.35,7.75s3.6,7.7,7.3,7.7c2.15,0,4.8-.95,6.7-3.25v4.3c-2.25,1.65-4.65,2.15-6.6,2.15-6.45,0-11.1-4.6-11.1-10.85s4.7-11,11.1-11c3.3,0,5.45,1.3,6.45,2v4.3Z"/>
  <path class="cls-1" d="M480.24,31.7c-.6,1.15-1.5,2.4-2.55,3.35-1.9,1.7-4.25,2.55-6.9,2.55-5,0-10.25-3.15-10.25-10.85,0-6.2,3.8-11,10.05-11,4.05,0,6.6,2,7.85,3.8,1.3,1.85,2.05,5.05,1.95,7.8h-16.15c.05,4.3,3,7.05,6.6,7.05,1.7,0,3.05-.5,4.25-1.5.95-.8,1.7-1.85,2.15-2.85l3,1.65ZM476.69,24.35c-.6-3.25-3.05-5.4-6.1-5.4s-5.55,2.3-6.1,5.4h12.2Z"/>
  <path class="cls-1" d="M494.44,21.05c-.5-1.2-1.55-2.1-2.9-2.1s-2.5.75-2.5,2.35c0,1.5,1,1.95,3.35,2.95,3,1.25,4.4,2.2,5.2,3.2.9,1.1,1.1,2.2,1.1,3.35,0,4.35-3.15,6.8-7.15,6.8-.85,0-5.5-.1-7.25-5.3l3.1-1.3c.4,1.1,1.6,3.4,4.2,3.4,2.35,0,3.4-1.75,3.4-3.3,0-1.95-1.4-2.6-3.35-3.45-2.5-1.1-4.1-1.9-5.05-3.05-.8-1-.95-2-.95-3.05,0-3.65,2.55-5.8,6.05-5.8,1.1,0,4.05.2,5.7,3.75l-2.95,1.55Z"/>
  <path class="cls-1" d="M518.83,19.55v17.45h-3.6v-17.45h-2.2v-3.3h2.2v-7.5h3.6v7.5h3.6v3.3h-3.6Z"/>
  <path class="cls-1" d="M541.74,16.25h3.6v20.75h-3.6v-2.9c-1.2,1.55-3.45,3.5-7.1,3.5-5.25,0-10.1-3.7-10.1-11s4.8-10.85,10.1-10.85c4,0,6.15,2.2,7.1,3.45v-2.95ZM528.23,26.6c0,4.45,2.5,7.8,6.8,7.8s6.9-3.65,6.9-7.75c0-5.35-3.7-7.7-6.9-7.7-3.55,0-6.8,2.6-6.8,7.65Z"/>
  <path class="cls-1" d="M553.93,5.85c1.4,0,2.55,1.15,2.55,2.55s-1.15,2.55-2.55,2.55-2.55-1.15-2.55-2.55,1.15-2.55,2.55-2.55ZM555.73,16.25v20.75h-3.6v-20.75h3.6Z"/>
  <path class="cls-1" d="M566.13.55v36.45h-3.6V.55h3.6Z"/>
  <path class="cls-1" d="M571.63,26.7c0-6.3,4.65-10.95,11-10.95s11,4.65,11,10.95-4.7,10.9-11,10.9-11-4.6-11-10.9ZM575.33,26.7c0,5.1,3.6,7.7,7.3,7.7s7.3-2.65,7.3-7.7-3.5-7.75-7.3-7.75-7.3,2.7-7.3,7.75Z"/>
  <path class="cls-1" d="M599.13,16.25h3.6v2.25c.35-.55,1.9-2.75,4.7-2.75,1.1,0,2.3.4,3.2.85l-1.7,3.25c-.8-.55-1.55-.7-2.1-.7-1.45,0-2.35.6-2.9,1.3-.6.8-1.2,2.2-1.2,5.6v10.95h-3.6v-20.75Z"/>
  <path class="cls-1" d="M631.13,31.7c-.6,1.15-1.5,2.4-2.55,3.35-1.9,1.7-4.25,2.55-6.9,2.55-5,0-10.25-3.15-10.25-10.85,0-6.2,3.8-11,10.05-11,4.05,0,6.6,2,7.85,3.8,1.3,1.85,2.05,5.05,1.95,7.8h-16.15c.05,4.3,3,7.05,6.6,7.05,1.7,0,3.05-.5,4.25-1.5.95-.8,1.7-1.85,2.15-2.85l3,1.65ZM627.58,24.35c-.6-3.25-3.05-5.4-6.1-5.4s-5.55,2.3-6.1,5.4h12.2Z"/>
  <path class="cls-1" d="M652.68.55h3.6v36.45h-3.6v-2.9c-1.2,1.55-3.45,3.5-7.1,3.5-5.25,0-10.1-3.7-10.1-11s4.8-10.85,10.1-10.85c4,0,6.15,2.2,7.1,3.45V.55ZM639.18,26.6c0,4.45,2.5,7.8,6.8,7.8s6.9-3.65,6.9-7.75c0-5.35-3.7-7.7-6.9-7.7-3.55,0-6.8,2.6-6.8,7.65Z"/>
  <path class="cls-1" d="M678.43,19.55v17.45h-3.6v-17.45h-2v-3.3h2V7.2c0-1.9.15-4.3,2-5.85,1-.85,2.5-1.35,4.15-1.35,1.3,0,2.15.3,2.55.45v3.5c-.75-.3-1.6-.45-2.35-.45-.8,0-1.75.2-2.3,1.1-.45.75-.45,1.9-.45,3v8.65h5.1v3.3h-5.1Z"/>
  <path class="cls-1" d="M685.43,26.7c0-6.3,4.65-10.95,11-10.95s11,4.65,11,10.95-4.7,10.9-11,10.9-11-4.6-11-10.9ZM689.13,26.7c0,5.1,3.6,7.7,7.3,7.7s7.3-2.65,7.3-7.7-3.5-7.75-7.3-7.75-7.3,2.7-7.3,7.75Z"/>
  <path class="cls-1" d="M712.93,16.25h3.6v2.25c.35-.55,1.9-2.75,4.7-2.75,1.1,0,2.3.4,3.2.85l-1.7,3.25c-.8-.55-1.55-.7-2.1-.7-1.45,0-2.35.6-2.9,1.3-.6.8-1.2,2.2-1.2,5.6v10.95h-3.6v-20.75Z"/>
  <path class="cls-1" d="M745.93,35.05l-9.55-18.8h4.1l7.35,14.85,6.75-14.85h4l-15.25,32.25h-4l6.6-13.45Z"/>
  <path class="cls-1" d="M761.08,26.7c0-6.3,4.65-10.95,11-10.95s11,4.65,11,10.95-4.7,10.9-11,10.9-11-4.6-11-10.9ZM764.78,26.7c0,5.1,3.6,7.7,7.3,7.7s7.3-2.65,7.3-7.7-3.5-7.75-7.3-7.75-7.3,2.7-7.3,7.75Z"/>
  <path class="cls-1" d="M792.18,28.35c0,1.45,0,3.15,1,4.45.55.7,1.65,1.6,3.65,1.6s3.1-.9,3.65-1.6c1-1.3,1-3,1-4.45v-12.1h3.6v12.5c0,2.55-.25,4.45-1.9,6.25-1.85,1.95-4.3,2.6-6.35,2.6s-4.5-.65-6.35-2.6c-1.65-1.8-1.9-3.7-1.9-6.25v-12.5h3.6v12.1Z"/>
  <path class="cls-1" d="M813.78,32.1l3.3,1.2-5.05,11.3-2.35-.95,4.1-11.55Z"/>
  <path class="cls-1" d="M-.4,86.7c0-6.3,4.65-10.95,11-10.95s11,4.65,11,10.95-4.7,10.9-11,10.9S-.4,93-.4,86.7ZM3.3,86.7c0,5.1,3.6,7.7,7.3,7.7s7.3-2.65,7.3-7.7-3.5-7.75-7.3-7.75-7.3,2.7-7.3,7.75Z"/>
  <path class="cls-1" d="M27.1,76.25h3.6v2.25c.35-.55,1.9-2.75,4.7-2.75,1.1,0,2.3.4,3.2.85l-1.7,3.25c-.8-.55-1.55-.7-2.1-.7-1.45,0-2.35.6-2.9,1.3-.6.8-1.2,2.2-1.2,5.6v10.95h-3.6v-20.75Z"/>
  <path class="cls-1" d="M62.1,81.05c-.5-1.2-1.55-2.1-2.9-2.1s-2.5.75-2.5,2.35c0,1.5,1,1.95,3.35,2.95,3,1.25,4.4,2.2,5.2,3.2.9,1.1,1.1,2.2,1.1,3.35,0,4.35-3.15,6.8-7.15,6.8-.85,0-5.5-.1-7.25-5.3l3.1-1.3c.4,1.1,1.6,3.4,4.2,3.4,2.35,0,3.4-1.75,3.4-3.3,0-1.95-1.4-2.6-3.35-3.45-2.5-1.1-4.1-1.9-5.05-3.05-.8-1-.95-2-.95-3.05,0-3.65,2.55-5.8,6.05-5.8,1.1,0,4.05.2,5.7,3.75l-2.95,1.55Z"/>
  <path class="cls-1" d="M71.15,60.55h3.6v18.1c.65-.85,2.5-2.9,5.95-2.9,2.45,0,4.7,1,5.95,2.85,1.05,1.55,1.2,3.25,1.2,5.55v12.85h-3.6v-12.75c0-1.25-.1-2.7-.95-3.8-.7-.9-1.8-1.5-3.4-1.5-1.25,0-2.6.35-3.65,1.6-1.4,1.65-1.5,4.1-1.5,5.6v10.85h-3.6v-36.45Z"/>
  <path class="cls-1" d="M110.55,76.25h3.6v20.75h-3.6v-2.9c-1.2,1.55-3.45,3.5-7.1,3.5-5.25,0-10.1-3.7-10.1-11s4.8-10.85,10.1-10.85c4,0,6.15,2.2,7.1,3.45v-2.95ZM97.05,86.6c0,4.45,2.5,7.8,6.8,7.8s6.9-3.65,6.9-7.75c0-5.35-3.7-7.7-6.9-7.7-3.55,0-6.8,2.6-6.8,7.65Z"/>
  <path class="cls-1" d="M120.95,76.25h3.6v2.25c.35-.55,1.9-2.75,4.7-2.75,1.1,0,2.3.4,3.2.85l-1.7,3.25c-.8-.55-1.55-.7-2.1-.7-1.45,0-2.35.6-2.9,1.3-.6.8-1.2,2.2-1.2,5.6v10.95h-3.6v-20.75Z"/>
  <path class="cls-1" d="M152.95,91.7c-.6,1.15-1.5,2.4-2.55,3.35-1.9,1.7-4.25,2.55-6.9,2.55-5,0-10.25-3.15-10.25-10.85,0-6.2,3.8-11,10.05-11,4.05,0,6.6,2,7.85,3.8,1.3,1.85,2.05,5.05,1.95,7.8h-16.15c.05,4.3,3,7.05,6.6,7.05,1.7,0,3.05-.5,4.25-1.5.95-.8,1.7-1.85,2.15-2.85l3,1.65ZM149.4,84.35c-.6-3.25-3.05-5.4-6.1-5.4s-5.55,2.3-6.1,5.4h12.2Z"/>
  <path class="cls-1" d="M176.8,95.05l-9.55-18.8h4.1l7.35,14.85,6.75-14.85h4l-15.25,32.25h-4l6.6-13.45Z"/>
  <path class="cls-1" d="M191.95,86.7c0-6.3,4.65-10.95,11-10.95s11,4.65,11,10.95-4.7,10.9-11,10.9-11-4.6-11-10.9ZM195.65,86.7c0,5.1,3.6,7.7,7.3,7.7s7.3-2.65,7.3-7.7-3.5-7.75-7.3-7.75-7.3,2.7-7.3,7.75Z"/>
  <path class="cls-1" d="M223.04,88.35c0,1.45,0,3.15,1,4.45.55.7,1.65,1.6,3.65,1.6s3.1-.9,3.65-1.6c1-1.3,1-3,1-4.45v-12.1h3.6v12.5c0,2.55-.25,4.45-1.9,6.25-1.85,1.95-4.3,2.6-6.35,2.6s-4.5-.65-6.35-2.6c-1.65-1.8-1.9-3.7-1.9-6.25v-12.5h3.6v12.1Z"/>
  <path class="cls-1" d="M242.74,76.25h3.6v2.25c.35-.55,1.9-2.75,4.7-2.75,1.1,0,2.3.4,3.2.85l-1.7,3.25c-.8-.55-1.55-.7-2.1-.7-1.45,0-2.35.6-2.9,1.3-.6.8-1.2,2.2-1.2,5.6v10.95h-3.6v-20.75Z"/>
  <path class="cls-1" d="M267.89,86.7c0-6.3,4.65-10.95,11-10.95s11,4.65,11,10.95-4.7,10.9-11,10.9-11-4.6-11-10.9ZM271.59,86.7c0,5.1,3.6,7.7,7.3,7.7s7.3-2.65,7.3-7.7-3.5-7.75-7.3-7.75-7.3,2.7-7.3,7.75Z"/>
  <path class="cls-1" d="M296.39,76.25l6.15,14.1,6.5-15.7,6.45,15.7,6.2-14.1h4l-10.3,22.2-6.4-15.5-6.4,15.5-10.2-22.2h4Z"/>
  <path class="cls-1" d="M329.49,76.25h3.6v2.4c.65-.85,2.5-2.9,5.95-2.9,2.45,0,4.7,1,5.95,2.85,1.05,1.55,1.2,3.25,1.2,5.55v12.85h-3.6v-12.75c0-1.25-.1-2.7-.95-3.8-.7-.9-1.8-1.5-3.4-1.5-1.25,0-2.6.35-3.65,1.6-1.4,1.65-1.5,4.1-1.5,5.6v10.85h-3.6v-20.75Z"/>
  <path class="cls-1" d="M383.04,91.7c-.6,1.15-1.5,2.4-2.55,3.35-1.9,1.7-4.25,2.55-6.9,2.55-5,0-10.25-3.15-10.25-10.85,0-6.2,3.8-11,10.05-11,4.05,0,6.6,2,7.85,3.8,1.3,1.85,2.05,5.05,1.95,7.8h-16.15c.05,4.3,3,7.05,6.6,7.05,1.7,0,3.05-.5,4.25-1.5.95-.8,1.7-1.85,2.15-2.85l3,1.65ZM379.49,84.35c-.6-3.25-3.05-5.4-6.1-5.4s-5.55,2.3-6.1,5.4h12.2Z"/>
  <path class="cls-1" d="M389.69,76.25l6.2,14,6.2-14h4l-10.2,22.1-10.2-22.1h4Z"/>
  <path class="cls-1" d="M428.29,91.7c-.6,1.15-1.5,2.4-2.55,3.35-1.9,1.7-4.25,2.55-6.9,2.55-5,0-10.25-3.15-10.25-10.85,0-6.2,3.8-11,10.05-11,4.05,0,6.6,2,7.85,3.8,1.3,1.85,2.05,5.05,1.95,7.8h-16.15c.05,4.3,3,7.05,6.6,7.05,1.7,0,3.05-.5,4.25-1.5.95-.8,1.7-1.85,2.15-2.85l3,1.65ZM424.74,84.35c-.6-3.25-3.05-5.4-6.1-5.4s-5.55,2.3-6.1,5.4h12.2Z"/>
  <path class="cls-1" d="M433.94,76.25h3.6v2.4c.65-.85,2.5-2.9,5.95-2.9,2.45,0,4.7,1,5.95,2.85,1.05,1.55,1.2,3.25,1.2,5.55v12.85h-3.6v-12.75c0-1.25-.1-2.7-.95-3.8-.7-.9-1.8-1.5-3.4-1.5-1.25,0-2.6.35-3.65,1.6-1.4,1.65-1.5,4.1-1.5,5.6v10.85h-3.6v-20.75Z"/>
  <path class="cls-1" d="M461.14,79.55v17.45h-3.6v-17.45h-2.2v-3.3h2.2v-7.5h3.6v7.5h3.6v3.3h-3.6Z"/>
  <path class="cls-1" d="M483.49,79.55v17.45h-3.6v-17.45h-2.2v-3.3h2.2v-7.5h3.6v7.5h3.6v3.3h-3.6Z"/>
  <path class="cls-1" d="M489.19,86.7c0-6.3,4.65-10.95,11-10.95s11,4.65,11,10.95-4.7,10.9-11,10.9-11-4.6-11-10.9ZM492.89,86.7c0,5.1,3.6,7.7,7.3,7.7s7.3-2.65,7.3-7.7-3.5-7.75-7.3-7.75-7.3,2.7-7.3,7.75Z"/>
  <path class="cls-1" d="M544.24,76.25h3.6v20.25c0,2.25,0,5.45-2,8.15-1.55,2.1-4.4,3.85-8.3,3.85-3.55,0-6-1.4-7.4-2.8s-2.7-3.65-2.7-6.7h3.55c0,1.75.7,3.3,1.6,4.3,1.5,1.65,3.4,2,5,2,2.55,0,4.3-.9,5.5-2.9,1.05-1.7,1.15-3.55,1.15-5.3v-3c-1.2,1.55-3.45,3.5-7.1,3.5-3.05,0-5.5-1.2-7.1-2.8-1.4-1.4-3-4-3-8.2s1.5-6.55,3-8.05c1.75-1.7,4.3-2.8,7.1-2.8,3.05,0,5.45,1.3,7.1,3.45v-2.95ZM532.83,80.9c-1.75,1.8-2.1,4-2.1,5.7,0,1.8.35,4.25,2.35,6.1,1.15,1.05,2.55,1.7,4.45,1.7s3.4-.6,4.55-1.75c1.4-1.35,2.35-3.55,2.35-6s-.9-4.6-2.2-5.85c-1.15-1.15-2.85-1.85-4.7-1.85-2.2,0-3.7.95-4.7,1.95Z"/>
  <path class="cls-1" d="M554.63,76.25h3.6v2.25c.35-.55,1.9-2.75,4.7-2.75,1.1,0,2.3.4,3.2.85l-1.7,3.25c-.8-.55-1.55-.7-2.1-.7-1.45,0-2.35.6-2.9,1.3-.6.8-1.2,2.2-1.2,5.6v10.95h-3.6v-20.75Z"/>
  <path class="cls-1" d="M566.93,86.7c0-6.3,4.65-10.95,11-10.95s11,4.65,11,10.95-4.7,10.9-11,10.9-11-4.6-11-10.9ZM570.63,86.7c0,5.1,3.6,7.7,7.3,7.7s7.3-2.65,7.3-7.7-3.5-7.75-7.3-7.75-7.3,2.7-7.3,7.75Z"/>
  <path class="cls-1" d="M595.43,76.25l6.15,14.1,6.5-15.7,6.45,15.7,6.2-14.1h4l-10.3,22.2-6.4-15.5-6.4,15.5-10.2-22.2h4Z"/>
  <path class="cls-1" d="M643.88,79.55v17.45h-3.6v-17.45h-2.2v-3.3h2.2v-7.5h3.6v7.5h3.6v3.3h-3.6Z"/>
  <path class="cls-1" d="M650.88,60.55h3.6v18.1c.65-.85,2.5-2.9,5.95-2.9,2.45,0,4.7,1,5.95,2.85,1.05,1.55,1.2,3.25,1.2,5.55v12.85h-3.6v-12.75c0-1.25-.1-2.7-.95-3.8-.7-.9-1.8-1.5-3.4-1.5-1.25,0-2.6.35-3.65,1.6-1.4,1.65-1.5,4.1-1.5,5.6v10.85h-3.6v-36.45Z"/>
  <path class="cls-1" d="M692.28,91.7c-.6,1.15-1.5,2.4-2.55,3.35-1.9,1.7-4.25,2.55-6.9,2.55-5,0-10.25-3.15-10.25-10.85,0-6.2,3.8-11,10.05-11,4.05,0,6.6,2,7.85,3.8,1.3,1.85,2.05,5.05,1.95,7.8h-16.15c.05,4.3,3,7.05,6.6,7.05,1.7,0,3.05-.5,4.25-1.5.95-.8,1.7-1.85,2.15-2.85l3,1.65ZM688.73,84.35c-.6-3.25-3.05-5.4-6.1-5.4s-5.55,2.3-6.1,5.4h12.2Z"/>
  <path class="cls-1" d="M725.83,82.05c-1.9-2.4-4.65-3.1-6.5-3.1-3.85,0-7.35,2.7-7.35,7.75s3.6,7.7,7.3,7.7c2.15,0,4.8-.95,6.7-3.25v4.3c-2.25,1.65-4.65,2.15-6.6,2.15-6.45,0-11.1-4.6-11.1-10.85s4.7-11,11.1-11c3.3,0,5.45,1.3,6.45,2v4.3Z"/>
  <path class="cls-1" d="M730.18,86.7c0-6.3,4.65-10.95,11-10.95s11,4.65,11,10.95-4.7,10.9-11,10.9-11-4.6-11-10.9ZM733.88,86.7c0,5.1,3.6,7.7,7.3,7.7s7.3-2.65,7.3-7.7-3.5-7.75-7.3-7.75-7.3,2.7-7.3,7.75Z"/>
  <path class="cls-1" d="M757.68,76.25h3.6v2.2c1.15-1.7,2.95-2.7,5.15-2.7,3.75,0,5.25,2.65,5.65,3.35,2-3.15,4.85-3.35,6.25-3.35,6.15,0,6.75,5.15,6.75,8.1v13.15h-3.6v-12.6c0-2.35-.3-5.45-3.7-5.45-4.15,0-4.6,4-4.6,6.5v11.55h-3.6v-12.3c0-1.45.05-5.75-3.75-5.75-4.1,0-4.55,4.25-4.55,6.75v11.3h-3.6v-20.75Z"/>
  <path class="cls-1" d="M791.93,76.25h3.6v2.2c1.15-1.7,2.95-2.7,5.15-2.7,3.75,0,5.25,2.65,5.65,3.35,2-3.15,4.85-3.35,6.25-3.35,6.15,0,6.75,5.15,6.75,8.1v13.15h-3.6v-12.6c0-2.35-.3-5.45-3.7-5.45-4.15,0-4.6,4-4.6,6.5v11.55h-3.6v-12.3c0-1.45.05-5.75-3.75-5.75-4.1,0-4.55,4.25-4.55,6.75v11.3h-3.6v-20.75Z"/>
  <path class="cls-1" d="M829.78,88.35c0,1.45,0,3.15,1,4.45.55.7,1.65,1.6,3.65,1.6s3.1-.9,3.65-1.6c1-1.3,1-3,1-4.45v-12.1h3.6v12.5c0,2.55-.25,4.45-1.9,6.25-1.85,1.95-4.3,2.6-6.35,2.6s-4.5-.65-6.35-2.6c-1.65-1.8-1.9-3.7-1.9-6.25v-12.5h3.6v12.1Z"/>
  <path class="cls-1" d="M849.48,76.25h3.6v2.4c.65-.85,2.5-2.9,5.95-2.9,2.45,0,4.7,1,5.95,2.85,1.05,1.55,1.2,3.25,1.2,5.55v12.85h-3.6v-12.75c0-1.25-.1-2.7-.95-3.8-.7-.9-1.8-1.5-3.4-1.5-1.25,0-2.6.35-3.65,1.6-1.4,1.65-1.5,4.1-1.5,5.6v10.85h-3.6v-20.75Z"/>
  <path class="cls-1" d="M874.78,65.85c1.4,0,2.55,1.15,2.55,2.55s-1.15,2.55-2.55,2.55-2.55-1.15-2.55-2.55,1.15-2.55,2.55-2.55ZM876.58,76.25v20.75h-3.6v-20.75h3.6Z"/>
  <path class="cls-1" d="M887.08,79.55v17.45h-3.6v-17.45h-2.2v-3.3h2.2v-7.5h3.6v7.5h3.6v3.3h-3.6Z"/>
  <path class="cls-1" d="M902.13,95.05l-9.55-18.8h4.1l7.35,14.85,6.75-14.85h4l-15.25,32.25h-4l6.6-13.45Z"/>
  <path class="cls-1" d="M918.73,92.5c1.35,0,2.5,1.15,2.5,2.5s-1.15,2.5-2.5,2.5-2.5-1.15-2.5-2.5,1.15-2.5,2.5-2.5Z"/>
</svg>