<?xml version="1.0" encoding="UTF-8"?>
<svg id="katman_1" data-name="katman 1" xmlns="http://www.w3.org/2000/svg" viewBox="0 0 503.95 89">
  <defs>
    <style>
      .cls-1 {
        fill: #606060;
      }
    </style>
  </defs>
  <path class="cls-1" d="M39.53,87.32h-11.74L0,7.43h16.53l17.85,54.38L53.9,6.71h8.62l18.45,55.1L100.14,7.43h16.53l-29.59,79.9h-11.74l-17.49-50.67-18.33,50.67Z"/>
  <path class="cls-1" d="M171.06,72.83c-1.56,3.83-7.43,16.17-25.51,16.17-8.38,0-14.73-2.4-19.88-7.31-5.75-5.39-8.15-12.1-8.15-20.24,0-10.3,4.19-16.65,7.91-20.36,6.11-5.99,13.3-7.31,19.53-7.31,10.54,0,16.65,4.19,20.24,8.51,5.51,6.59,6.23,14.73,6.23,20.36v1.2h-38.81c0,3.11.84,6.47,2.52,8.74,1.56,2.16,4.79,4.91,10.42,4.91s9.7-2.64,12.1-6.83l13.42,2.16ZM157.64,54.5c-1.2-7.07-6.95-10.42-12.34-10.42s-11.02,3.47-12.22,10.42h24.56Z"/>
  <path class="cls-1" d="M197.29,0v87.32h-14.61V0h14.61Z"/>
  <path class="cls-1" d="M250.24,51.27c-3.11-2.87-6.95-4.55-11.98-4.55-9.7,0-14.61,7.07-14.61,14.61,0,8.5,6.35,14.73,15.09,14.73,3.23,0,7.55-.96,11.5-4.55v14.25c-2.87,1.44-7.43,3.23-13.42,3.23-8.14,0-15.33-3.11-20-7.55-3.95-3.71-8.26-10.18-8.26-19.89,0-9.1,3.71-16.41,8.98-21.08,6.35-5.63,13.66-6.71,18.69-6.71,5.39,0,9.82,1.08,14.01,3.11v14.37Z"/>
  <path class="cls-1" d="M309.29,41.09c5.15,4.67,8.74,11.86,8.74,20.36s-3.59,15.57-8.74,20.24c-4.43,4.07-11.14,7.31-20.96,7.31s-16.53-3.23-20.96-7.31c-5.15-4.67-8.74-11.86-8.74-20.24s3.59-15.69,8.74-20.36c4.43-4.07,11.14-7.31,20.96-7.31s16.53,3.23,20.96,7.31ZM302.94,61.45c0-8.15-6.23-14.73-14.61-14.73s-14.61,6.59-14.61,14.73,6.11,14.61,14.61,14.61,14.61-6.71,14.61-14.61Z"/>
  <path class="cls-1" d="M329.3,35.46h14.61v5.87c5.51-6.95,12.34-7.55,15.45-7.55,10.9,0,15.09,6.83,16.41,9.46,2.52-4.07,7.67-9.46,16.65-9.46,8.02,0,11.98,3.71,14.01,6.35,3.35,4.43,3.59,8.86,3.59,14.61v32.58h-14.61v-28.27c0-6.11-1.32-8.86-2.4-10.18-1.92-2.4-4.55-2.64-5.99-2.64-3.95,0-6.47,1.8-8.02,4.55-1.92,3.11-2.04,7.31-2.04,10.06v26.47h-14.61v-28.27c0-6.11-1.32-8.86-2.4-10.18-1.92-2.4-4.55-2.64-5.99-2.64-3.95,0-6.47,1.8-8.03,4.55-1.92,3.11-2.04,7.31-2.04,10.06v26.47h-14.61v-51.87Z"/>
  <path class="cls-1" d="M474.84,72.83c-1.56,3.83-7.43,16.17-25.51,16.17-8.39,0-14.73-2.4-19.89-7.31-5.75-5.39-8.14-12.1-8.14-20.24,0-10.3,4.19-16.65,7.91-20.36,6.11-5.99,13.3-7.31,19.52-7.31,10.54,0,16.65,4.19,20.24,8.51,5.51,6.59,6.23,14.73,6.23,20.36v1.2h-38.81c0,3.11.84,6.47,2.52,8.74,1.56,2.16,4.79,4.91,10.42,4.91s9.7-2.64,12.1-6.83l13.42,2.16ZM461.42,54.5c-1.2-7.07-6.95-10.42-12.34-10.42s-11.02,3.47-12.22,10.42h24.56Z"/>
  <path class="cls-1" d="M494.61,70.19c5.27,0,9.34,4.07,9.34,9.34s-4.07,9.34-9.34,9.34-9.34-4.07-9.34-9.34,4.07-9.34,9.34-9.34ZM487.18,63.01V7.43h14.85v55.58h-14.85Z"/>
</svg>